<svg width="1357" height="527" viewBox="0 0 1357 527" fill="none" xmlns="http://www.w3.org/2000/svg">
<path d="M996.735 299.793C1026.94 470.345 536.609 566.054 247.957 437.282L142.922 479.281L56.1992 301.912L477.718 345.406L369.399 388.717C574.132 485.968 905.796 434.177 996.726 299.792L996.735 299.793Z" fill="url(#paint0_linear_318_3)" stroke="url(#paint1_linear_318_3)" stroke-width="7.7696"/>
<path opacity="0.69886" d="M984.822 331.358C954.387 480.931 506.36 547.401 244.511 425.745L153.774 462.026L80.1022 312.57L436.193 349.109L343.457 386.19C547.762 487.992 852.117 448.339 984.824 331.359L984.822 331.358Z" stroke="url(#paint2_linear_318_3)" stroke-width="7.7696" stroke-miterlimit="10"/>
<path opacity="0.69886" d="M148.128 469.612L160.072 464.842L244.262 431.161C377.325 490.385 548.019 505.016 715.775 482.553C821.182 468.44 896.575 430.799 896.575 430.799C529.07 543.877 425.738 377.357 111.753 395.781L148.128 469.612Z" fill="url(#paint3_radial_318_3)"/>
<path d="M354.725 225.037C328.842 53.7783 821.431 -29.5113 1106.74 106.512L1212.8 67.1811L1295.01 246.683L874.728 192.553L984.106 151.993C781.896 49.6004 449.03 92.9943 354.734 225.038L354.725 225.037Z" fill="url(#paint4_linear_318_3)" stroke="url(#paint5_linear_318_3)" stroke-width="7.7696"/>
<path opacity="0.69886" d="M367.431 193.783C401.635 45.0285 851.199 -10.0995 1109.89 118.132L1201.52 84.1554L1271.39 235.424L916.333 189.9L1009.98 155.174C808.309 48.2439 503.049 80.1939 367.429 193.782L367.431 193.783Z" stroke="url(#paint6_linear_318_3)" stroke-width="7.7696" stroke-miterlimit="10"/>
<path opacity="0.69886" d="M1207.35 76.7145L1195.29 81.181L1110.28 112.724C978.752 50.1574 808.483 31.2186 640.213 49.4359C534.483 60.8811 458.162 96.605 458.162 96.605C828.407 -7.15037 927.499 161.925 1241.85 151.44L1207.35 76.7145Z" fill="url(#paint7_radial_318_3)"/>
<path d="M164.273 308V214.909H220.455V224.909H175.545V256.364H217.545V266.364H175.545V298H221.182V308H164.273ZM247.318 238.182L264.045 266.727L280.773 238.182H293.136L270.591 273.091L293.136 308H280.773L264.045 280.909L247.318 308H234.955L257.136 273.091L234.955 238.182H247.318ZM308.443 334.182V238.182H318.807V249.273H320.08C320.867 248.061 321.958 246.515 323.352 244.636C324.777 242.727 326.807 241.03 329.443 239.545C332.11 238.03 335.716 237.273 340.261 237.273C346.14 237.273 351.322 238.742 355.807 241.682C360.292 244.621 363.792 248.788 366.307 254.182C368.822 259.576 370.08 265.939 370.08 273.273C370.08 280.667 368.822 287.076 366.307 292.5C363.792 297.894 360.307 302.076 355.852 305.045C351.398 307.985 346.261 309.455 340.443 309.455C335.958 309.455 332.367 308.712 329.67 307.227C326.973 305.712 324.898 304 323.443 302.091C321.989 300.152 320.867 298.545 320.08 297.273H319.17V334.182H308.443ZM318.989 273.091C318.989 278.364 319.761 283.015 321.307 287.045C322.852 291.045 325.11 294.182 328.08 296.455C331.049 298.697 334.686 299.818 338.989 299.818C343.473 299.818 347.216 298.636 350.216 296.273C353.246 293.879 355.519 290.667 357.034 286.636C358.58 282.576 359.352 278.061 359.352 273.091C359.352 268.182 358.595 263.758 357.08 259.818C355.595 255.848 353.337 252.712 350.307 250.409C347.307 248.076 343.534 246.909 338.989 246.909C334.625 246.909 330.958 248.015 327.989 250.227C325.019 252.409 322.777 255.47 321.261 259.409C319.746 263.318 318.989 267.879 318.989 273.091ZM415.716 309.455C408.989 309.455 403.186 307.97 398.307 305C393.458 302 389.716 297.818 387.08 292.455C384.473 287.061 383.17 280.788 383.17 273.636C383.17 266.485 384.473 260.182 387.08 254.727C389.716 249.242 393.383 244.97 398.08 241.909C402.807 238.818 408.322 237.273 414.625 237.273C418.261 237.273 421.852 237.879 425.398 239.091C428.943 240.303 432.17 242.273 435.08 245C437.989 247.697 440.307 251.273 442.034 255.727C443.761 260.182 444.625 265.667 444.625 272.182V276.727H390.807V267.455H433.716C433.716 263.515 432.928 260 431.352 256.909C429.807 253.818 427.595 251.379 424.716 249.591C421.867 247.803 418.504 246.909 414.625 246.909C410.352 246.909 406.655 247.97 403.534 250.091C400.443 252.182 398.064 254.909 396.398 258.273C394.731 261.636 393.898 265.242 393.898 269.091V275.273C393.898 280.545 394.807 285.015 396.625 288.682C398.473 292.318 401.034 295.091 404.307 297C407.58 298.879 411.383 299.818 415.716 299.818C418.534 299.818 421.08 299.424 423.352 298.636C425.655 297.818 427.64 296.606 429.307 295C430.973 293.364 432.261 291.333 433.17 288.909L443.534 291.818C442.443 295.333 440.61 298.424 438.034 301.091C435.458 303.727 432.277 305.788 428.489 307.273C424.701 308.727 420.443 309.455 415.716 309.455ZM471.67 266V308H460.943V238.182H471.307V249.091H472.216C473.852 245.545 476.337 242.697 479.67 240.545C483.004 238.364 487.307 237.273 492.58 237.273C497.307 237.273 501.443 238.242 504.989 240.182C508.534 242.091 511.292 245 513.261 248.909C515.231 252.788 516.216 257.697 516.216 263.636V308H505.489V264.364C505.489 258.879 504.064 254.606 501.216 251.545C498.367 248.455 494.458 246.909 489.489 246.909C486.064 246.909 483.004 247.652 480.307 249.136C477.64 250.621 475.534 252.788 473.989 255.636C472.443 258.485 471.67 261.939 471.67 266ZM585.273 253.818L575.636 256.545C575.03 254.939 574.136 253.379 572.955 251.864C571.803 250.318 570.227 249.045 568.227 248.045C566.227 247.045 563.667 246.545 560.545 246.545C556.273 246.545 552.712 247.53 549.864 249.5C547.045 251.439 545.636 253.909 545.636 256.909C545.636 259.576 546.606 261.682 548.545 263.227C550.485 264.773 553.515 266.061 557.636 267.091L568 269.636C574.242 271.152 578.894 273.47 581.955 276.591C585.015 279.682 586.545 283.667 586.545 288.545C586.545 292.545 585.394 296.121 583.091 299.273C580.818 302.424 577.636 304.909 573.545 306.727C569.455 308.545 564.697 309.455 559.273 309.455C552.152 309.455 546.258 307.909 541.591 304.818C536.924 301.727 533.97 297.212 532.727 291.273L542.909 288.727C543.879 292.485 545.712 295.303 548.409 297.182C551.136 299.061 554.697 300 559.091 300C564.091 300 568.061 298.939 571 296.818C573.97 294.667 575.455 292.091 575.455 289.091C575.455 286.667 574.606 284.636 572.909 283C571.212 281.333 568.606 280.091 565.091 279.273L553.455 276.545C547.061 275.03 542.364 272.682 539.364 269.5C536.394 266.288 534.909 262.273 534.909 257.455C534.909 253.515 536.015 250.03 538.227 247C540.47 243.97 543.515 241.591 547.364 239.864C551.242 238.136 555.636 237.273 560.545 237.273C567.455 237.273 572.879 238.788 576.818 241.818C580.788 244.848 583.606 248.848 585.273 253.818ZM631.966 309.455C625.239 309.455 619.436 307.97 614.557 305C609.708 302 605.966 297.818 603.33 292.455C600.723 287.061 599.42 280.788 599.42 273.636C599.42 266.485 600.723 260.182 603.33 254.727C605.966 249.242 609.633 244.97 614.33 241.909C619.057 238.818 624.572 237.273 630.875 237.273C634.511 237.273 638.102 237.879 641.648 239.091C645.193 240.303 648.42 242.273 651.33 245C654.239 247.697 656.557 251.273 658.284 255.727C660.011 260.182 660.875 265.667 660.875 272.182V276.727H607.057V267.455H649.966C649.966 263.515 649.178 260 647.602 256.909C646.057 253.818 643.845 251.379 640.966 249.591C638.117 247.803 634.754 246.909 630.875 246.909C626.602 246.909 622.905 247.97 619.784 250.091C616.693 252.182 614.314 254.909 612.648 258.273C610.981 261.636 610.148 265.242 610.148 269.091V275.273C610.148 280.545 611.057 285.015 612.875 288.682C614.723 292.318 617.284 295.091 620.557 297C623.83 298.879 627.633 299.818 631.966 299.818C634.784 299.818 637.33 299.424 639.602 298.636C641.905 297.818 643.89 296.606 645.557 295C647.223 293.364 648.511 291.333 649.42 288.909L659.784 291.818C658.693 295.333 656.86 298.424 654.284 301.091C651.708 303.727 648.527 305.788 644.739 307.273C640.951 308.727 636.693 309.455 631.966 309.455ZM709.557 224.909V214.909H779.375V224.909H750.102V308H738.83V224.909H709.557ZM788.068 308V238.182H798.432V248.727H799.159C800.432 245.273 802.735 242.47 806.068 240.318C809.402 238.167 813.159 237.091 817.341 237.091C818.129 237.091 819.114 237.106 820.295 237.136C821.477 237.167 822.371 237.212 822.977 237.273V248.182C822.614 248.091 821.78 247.955 820.477 247.773C819.205 247.561 817.856 247.455 816.432 247.455C813.038 247.455 810.008 248.167 807.341 249.591C804.705 250.985 802.614 252.924 801.068 255.409C799.553 257.864 798.795 260.667 798.795 263.818V308H788.068ZM856.239 309.636C851.814 309.636 847.799 308.803 844.193 307.136C840.587 305.439 837.723 303 835.602 299.818C833.481 296.606 832.42 292.727 832.42 288.182C832.42 284.182 833.208 280.939 834.784 278.455C836.36 275.939 838.466 273.97 841.102 272.545C843.739 271.121 846.648 270.061 849.83 269.364C853.042 268.636 856.269 268.061 859.511 267.636C863.754 267.091 867.193 266.682 869.83 266.409C872.496 266.106 874.436 265.606 875.648 264.909C876.89 264.212 877.511 263 877.511 261.273V260.909C877.511 256.424 876.284 252.939 873.83 250.455C871.405 247.97 867.723 246.727 862.784 246.727C857.663 246.727 853.648 247.848 850.739 250.091C847.83 252.333 845.784 254.727 844.602 257.273L834.42 253.636C836.239 249.394 838.663 246.091 841.693 243.727C844.754 241.333 848.087 239.667 851.693 238.727C855.33 237.758 858.905 237.273 862.42 237.273C864.663 237.273 867.239 237.545 870.148 238.091C873.087 238.606 875.92 239.682 878.648 241.318C881.405 242.955 883.693 245.424 885.511 248.727C887.33 252.03 888.239 256.455 888.239 262V308H877.511V298.545H876.966C876.239 300.061 875.027 301.682 873.33 303.409C871.633 305.136 869.375 306.606 866.557 307.818C863.739 309.03 860.299 309.636 856.239 309.636ZM857.875 300C862.117 300 865.693 299.167 868.602 297.5C871.542 295.833 873.754 293.682 875.239 291.045C876.754 288.409 877.511 285.636 877.511 282.727V272.909C877.057 273.455 876.057 273.955 874.511 274.409C872.996 274.833 871.239 275.212 869.239 275.545C867.269 275.848 865.345 276.121 863.466 276.364C861.617 276.576 860.117 276.758 858.966 276.909C856.178 277.273 853.572 277.864 851.148 278.682C848.754 279.47 846.814 280.667 845.33 282.273C843.875 283.848 843.148 286 843.148 288.727C843.148 292.455 844.527 295.273 847.284 297.182C850.072 299.061 853.602 300 857.875 300ZM936.182 309.455C929.636 309.455 924 307.909 919.273 304.818C914.545 301.727 910.909 297.47 908.364 292.045C905.818 286.621 904.545 280.424 904.545 273.455C904.545 266.364 905.848 260.106 908.455 254.682C911.091 249.227 914.758 244.97 919.455 241.909C924.182 238.818 929.697 237.273 936 237.273C940.909 237.273 945.333 238.182 949.273 240C953.212 241.818 956.439 244.364 958.955 247.636C961.47 250.909 963.03 254.727 963.636 259.091H952.909C952.091 255.909 950.273 253.091 947.455 250.636C944.667 248.152 940.909 246.909 936.182 246.909C932 246.909 928.333 248 925.182 250.182C922.061 252.333 919.621 255.379 917.864 259.318C916.136 263.227 915.273 267.818 915.273 273.091C915.273 278.485 916.121 283.182 917.818 287.182C919.545 291.182 921.97 294.288 925.091 296.5C928.242 298.712 931.939 299.818 936.182 299.818C938.97 299.818 941.5 299.333 943.773 298.364C946.045 297.394 947.97 296 949.545 294.182C951.121 292.364 952.242 290.182 952.909 287.636H963.636C963.03 291.758 961.53 295.47 959.136 298.773C956.773 302.045 953.636 304.652 949.727 306.591C945.848 308.5 941.333 309.455 936.182 309.455ZM989.318 282.545L989.136 269.273H991.318L1021.86 238.182H1035.14L1002.59 271.091H1001.68L989.318 282.545ZM979.318 308V214.909H990.045V308H979.318ZM1023.68 308L996.409 273.455L1004.05 266L1037.32 308H1023.68ZM1075.34 309.455C1068.61 309.455 1062.81 307.97 1057.93 305C1053.08 302 1049.34 297.818 1046.7 292.455C1044.1 287.061 1042.8 280.788 1042.8 273.636C1042.8 266.485 1044.1 260.182 1046.7 254.727C1049.34 249.242 1053.01 244.97 1057.7 241.909C1062.43 238.818 1067.95 237.273 1074.25 237.273C1077.89 237.273 1081.48 237.879 1085.02 239.091C1088.57 240.303 1091.8 242.273 1094.7 245C1097.61 247.697 1099.93 251.273 1101.66 255.727C1103.39 260.182 1104.25 265.667 1104.25 272.182V276.727H1050.43V267.455H1093.34C1093.34 263.515 1092.55 260 1090.98 256.909C1089.43 253.818 1087.22 251.379 1084.34 249.591C1081.49 247.803 1078.13 246.909 1074.25 246.909C1069.98 246.909 1066.28 247.97 1063.16 250.091C1060.07 252.182 1057.69 254.909 1056.02 258.273C1054.36 261.636 1053.52 265.242 1053.52 269.091V275.273C1053.52 280.545 1054.43 285.015 1056.25 288.682C1058.1 292.318 1060.66 295.091 1063.93 297C1067.2 298.879 1071.01 299.818 1075.34 299.818C1078.16 299.818 1080.7 299.424 1082.98 298.636C1085.28 297.818 1087.27 296.606 1088.93 295C1090.6 293.364 1091.89 291.333 1092.8 288.909L1103.16 291.818C1102.07 295.333 1100.23 298.424 1097.66 301.091C1095.08 303.727 1091.9 305.788 1088.11 307.273C1084.33 308.727 1080.07 309.455 1075.34 309.455ZM1120.57 308V238.182H1130.93V248.727H1131.66C1132.93 245.273 1135.23 242.47 1138.57 240.318C1141.9 238.167 1145.66 237.091 1149.84 237.091C1150.63 237.091 1151.61 237.106 1152.8 237.136C1153.98 237.167 1154.87 237.212 1155.48 237.273V248.182C1155.11 248.091 1154.28 247.955 1152.98 247.773C1151.7 247.561 1150.36 247.455 1148.93 247.455C1145.54 247.455 1142.51 248.167 1139.84 249.591C1137.2 250.985 1135.11 252.924 1133.57 255.409C1132.05 257.864 1131.3 260.667 1131.3 263.818V308H1120.57Z" fill="black"/>
<path d="M164.273 308H161.273V311H164.273V308ZM164.273 214.909V211.909H161.273V214.909H164.273ZM220.455 214.909H223.455V211.909H220.455V214.909ZM220.455 224.909V227.909H223.455V224.909H220.455ZM175.545 224.909V221.909H172.545V224.909H175.545ZM175.545 256.364H172.545V259.364H175.545V256.364ZM217.545 256.364H220.545V253.364H217.545V256.364ZM217.545 266.364V269.364H220.545V266.364H217.545ZM175.545 266.364V263.364H172.545V266.364H175.545ZM175.545 298H172.545V301H175.545V298ZM221.182 298H224.182V295H221.182V298ZM221.182 308V311H224.182V308H221.182ZM167.273 308V214.909H161.273V308H167.273ZM164.273 217.909H220.455V211.909H164.273V217.909ZM217.455 214.909V224.909H223.455V214.909H217.455ZM220.455 221.909H175.545V227.909H220.455V221.909ZM172.545 224.909V256.364H178.545V224.909H172.545ZM175.545 259.364H217.545V253.364H175.545V259.364ZM214.545 256.364V266.364H220.545V256.364H214.545ZM217.545 263.364H175.545V269.364H217.545V263.364ZM172.545 266.364V298H178.545V266.364H172.545ZM175.545 301H221.182V295H175.545V301ZM218.182 298V308H224.182V298H218.182ZM221.182 305H164.273V311H221.182V305ZM247.318 238.182L249.907 236.665L249.037 235.182H247.318V238.182ZM264.045 266.727L261.457 268.244L264.045 272.661L266.634 268.244L264.045 266.727ZM280.773 238.182V235.182H279.054L278.184 236.665L280.773 238.182ZM293.136 238.182L295.656 239.809L298.645 235.182H293.136V238.182ZM270.591 273.091L268.071 271.463L267.02 273.091L268.071 274.718L270.591 273.091ZM293.136 308V311H298.645L295.656 306.372L293.136 308ZM280.773 308L278.22 309.576L279.099 311H280.773V308ZM264.045 280.909L266.598 279.333L264.045 275.199L261.493 279.333L264.045 280.909ZM247.318 308V311H248.992L249.871 309.576L247.318 308ZM234.955 308L232.422 306.391L229.494 311H234.955V308ZM257.136 273.091L259.668 274.7L260.691 273.091L259.668 271.482L257.136 273.091ZM234.955 238.182V235.182H229.494L232.422 239.791L234.955 238.182ZM244.73 239.699L261.457 268.244L266.634 265.211L249.907 236.665L244.73 239.699ZM266.634 268.244L283.361 239.699L278.184 236.665L261.457 265.211L266.634 268.244ZM280.773 241.182H293.136V235.182H280.773V241.182ZM290.616 236.554L268.071 271.463L273.111 274.718L295.656 239.809L290.616 236.554ZM268.071 274.718L290.616 309.628L295.656 306.372L273.111 271.463L268.071 274.718ZM293.136 305H280.773V311H293.136V305ZM283.325 306.424L266.598 279.333L261.493 282.485L278.22 309.576L283.325 306.424ZM261.493 279.333L244.766 306.424L249.871 309.576L266.598 282.485L261.493 279.333ZM247.318 305H234.955V311H247.318V305ZM237.487 309.609L259.668 274.7L254.604 271.482L232.422 306.391L237.487 309.609ZM259.668 271.482L237.487 236.573L232.422 239.791L254.604 274.7L259.668 271.482ZM234.955 241.182H247.318V235.182H234.955V241.182ZM308.443 334.182H305.443V337.182H308.443V334.182ZM308.443 238.182V235.182H305.443V238.182H308.443ZM318.807 238.182H321.807V235.182H318.807V238.182ZM318.807 249.273H315.807V252.273H318.807V249.273ZM320.08 249.273V252.273H321.708L322.595 250.908L320.08 249.273ZM323.352 244.636L320.948 242.842L320.943 242.849L323.352 244.636ZM329.443 239.545L330.915 242.159L330.925 242.154L329.443 239.545ZM355.807 241.682L357.451 239.173L357.451 239.173L355.807 241.682ZM366.307 254.182L369.026 252.914L369.026 252.914L366.307 254.182ZM366.307 292.5L369.026 293.768L369.028 293.762L366.307 292.5ZM355.852 305.045L357.505 307.549L357.51 307.546L357.516 307.542L355.852 305.045ZM329.67 307.227L328.201 309.843L328.212 309.849L328.224 309.855L329.67 307.227ZM323.443 302.091L321.043 303.891L321.05 303.9L321.057 303.909L323.443 302.091ZM320.08 297.273L322.63 295.694L321.751 294.273H320.08V297.273ZM319.17 297.273V294.273H316.17V297.273H319.17ZM319.17 334.182V337.182H322.17V334.182H319.17ZM321.307 287.045L318.506 288.12L318.508 288.127L321.307 287.045ZM328.08 296.455L326.256 298.837L326.264 298.843L326.272 298.849L328.08 296.455ZM350.216 296.273L352.073 298.629L352.076 298.627L350.216 296.273ZM357.034 286.636L354.23 285.569L354.226 285.581L357.034 286.636ZM357.08 259.818L354.27 260.869L354.275 260.882L354.28 260.895L357.08 259.818ZM350.307 250.409L348.465 252.777L348.478 252.787L348.492 252.798L350.307 250.409ZM327.989 250.227L329.765 252.645L329.773 252.639L329.781 252.633L327.989 250.227ZM321.261 259.409L324.059 260.493L324.061 260.486L321.261 259.409ZM311.443 334.182V238.182H305.443V334.182H311.443ZM308.443 241.182H318.807V235.182H308.443V241.182ZM315.807 238.182V249.273H321.807V238.182H315.807ZM318.807 252.273H320.08V246.273H318.807V252.273ZM322.595 250.908C323.335 249.769 324.385 248.279 325.762 246.424L320.943 242.849C319.532 244.751 318.4 246.352 317.564 247.638L322.595 250.908ZM325.757 246.43C326.873 244.934 328.549 243.492 330.915 242.159L327.971 236.932C325.065 238.568 322.68 240.52 320.948 242.842L325.757 246.43ZM330.925 242.154C332.974 240.99 336.003 240.273 340.261 240.273V234.273C335.429 234.273 331.246 235.071 327.961 236.937L330.925 242.154ZM340.261 240.273C345.614 240.273 350.213 241.602 354.162 244.191L357.451 239.173C352.431 235.882 346.666 234.273 340.261 234.273V240.273ZM354.162 244.191C358.13 246.792 361.282 250.504 363.588 255.45L369.026 252.914C366.302 247.072 362.453 242.451 357.451 239.173L354.162 244.191ZM363.588 255.45C365.88 260.365 367.08 266.278 367.08 273.273H373.08C373.08 265.601 371.764 258.786 369.026 252.914L363.588 255.45ZM367.08 273.273C367.08 280.331 365.879 286.291 363.585 291.238L369.028 293.762C371.765 287.86 373.08 281.002 373.08 273.273H367.08ZM363.588 291.232C361.278 296.185 358.135 299.918 354.188 302.549L357.516 307.542C362.478 304.234 366.305 299.603 369.026 293.768L363.588 291.232ZM354.2 302.541C350.28 305.128 345.729 306.455 340.443 306.455V312.455C346.794 312.455 352.516 310.842 357.505 307.549L354.2 302.541ZM340.443 306.455C336.249 306.455 333.214 305.754 331.117 304.599L328.224 309.855C331.52 311.67 335.668 312.455 340.443 312.455V306.455ZM331.14 304.612C328.701 303.242 326.975 301.777 325.829 300.273L321.057 303.909C322.82 306.223 325.246 308.183 328.201 309.843L331.14 304.612ZM325.843 300.291C324.414 298.385 323.352 296.859 322.63 295.694L317.529 298.852C318.383 300.232 319.563 301.918 321.043 303.891L325.843 300.291ZM320.08 294.273H319.17V300.273H320.08V294.273ZM316.17 297.273V334.182H322.17V297.273H316.17ZM319.17 331.182H308.443V337.182H319.17V331.182ZM315.989 273.091C315.989 278.652 316.803 283.68 318.506 288.12L324.108 285.971C322.72 282.351 321.989 278.075 321.989 273.091H315.989ZM318.508 288.127C320.223 292.565 322.787 296.182 326.256 298.837L329.903 294.072C327.433 292.182 325.481 289.526 324.105 285.964L318.508 288.127ZM326.272 298.849C329.841 301.544 334.139 302.818 338.989 302.818V296.818C335.232 296.818 332.258 295.85 329.887 294.06L326.272 298.849ZM338.989 302.818C344.025 302.818 348.455 301.48 352.073 298.629L348.359 293.916C345.977 295.793 342.922 296.818 338.989 296.818V302.818ZM352.076 298.627C355.582 295.857 358.158 292.173 359.842 287.692L354.226 285.581C352.88 289.16 350.91 291.901 348.356 293.919L352.076 298.627ZM359.838 287.703C361.53 283.257 362.352 278.373 362.352 273.091H356.352C356.352 277.748 355.629 281.895 354.23 285.569L359.838 287.703ZM362.352 273.091C362.352 267.873 361.547 263.075 359.88 258.741L354.28 260.895C355.643 264.44 356.352 268.491 356.352 273.091H362.352ZM359.889 258.767C358.229 254.329 355.654 250.705 352.122 248.021L348.492 252.798C351.021 254.72 352.96 257.368 354.27 260.869L359.889 258.767ZM352.149 248.041C348.524 245.222 344.066 243.909 338.989 243.909V249.909C343.002 249.909 346.089 250.929 348.465 252.777L352.149 248.041ZM338.989 243.909C334.098 243.909 329.772 245.158 326.197 247.821L329.781 252.633C332.145 250.872 335.152 249.909 338.989 249.909V243.909ZM326.212 247.81C322.716 250.379 320.152 253.937 318.461 258.332L324.061 260.486C325.401 257.002 327.322 254.44 329.765 252.645L326.212 247.81ZM318.464 258.325C316.787 262.652 315.989 267.595 315.989 273.091H321.989C321.989 268.163 322.706 263.984 324.059 260.493L318.464 258.325ZM398.307 305L396.728 307.551L396.738 307.557L396.747 307.563L398.307 305ZM387.08 292.455L384.378 293.76L384.383 293.769L384.387 293.778L387.08 292.455ZM387.08 254.727L384.376 253.428L384.373 253.434L387.08 254.727ZM398.08 241.909L399.717 244.423L399.721 244.42L398.08 241.909ZM425.398 239.091L426.368 236.252L426.368 236.252L425.398 239.091ZM435.08 245L433.028 247.189L433.034 247.194L433.04 247.2L435.08 245ZM442.034 255.727L444.831 254.643L444.831 254.643L442.034 255.727ZM444.625 276.727V279.727H447.625V276.727H444.625ZM390.807 276.727H387.807V279.727H390.807V276.727ZM390.807 267.455V264.455H387.807V267.455H390.807ZM433.716 267.455V270.455H436.716V267.455H433.716ZM431.352 256.909L428.669 258.251L428.674 258.261L428.68 258.272L431.352 256.909ZM424.716 249.591L423.121 252.132L423.127 252.136L423.133 252.139L424.716 249.591ZM403.534 250.091L405.215 252.576L405.22 252.572L403.534 250.091ZM396.398 258.273L393.71 256.941L393.71 256.941L396.398 258.273ZM396.625 288.682L393.937 290.015L393.944 290.028L393.951 290.041L396.625 288.682ZM404.307 297L402.795 299.591L402.804 299.597L402.813 299.602L404.307 297ZM423.352 298.636L424.335 301.471L424.346 301.467L424.357 301.463L423.352 298.636ZM429.307 295L431.388 297.16L431.399 297.151L431.409 297.141L429.307 295ZM433.17 288.909L433.981 286.021L431.329 285.276L430.361 287.856L433.17 288.909ZM443.534 291.818L446.399 292.707L447.313 289.763L444.345 288.93L443.534 291.818ZM438.034 301.091L440.18 303.187L440.186 303.181L440.192 303.175L438.034 301.091ZM428.489 307.273L429.564 310.073L429.574 310.07L429.584 310.066L428.489 307.273ZM415.716 306.455C409.44 306.455 404.198 305.074 399.867 302.437L396.747 307.563C402.174 310.866 408.537 312.455 415.716 312.455V306.455ZM399.885 302.449C395.54 299.76 392.172 296.015 389.772 291.131L384.387 293.778C387.26 299.622 391.377 304.24 396.728 307.551L399.885 302.449ZM389.781 291.149C387.406 286.234 386.17 280.423 386.17 273.636H380.17C380.17 281.153 381.541 287.887 384.378 293.76L389.781 291.149ZM386.17 273.636C386.17 266.851 387.406 261.004 389.786 256.021L384.373 253.434C381.541 259.36 380.17 266.118 380.17 273.636H386.17ZM389.783 256.027C392.203 250.993 395.519 247.158 399.717 244.423L396.442 239.396C391.246 242.781 387.229 247.492 384.376 253.428L389.783 256.027ZM399.721 244.42C403.905 241.684 408.835 240.273 414.625 240.273V234.273C407.809 234.273 401.709 235.952 396.438 239.398L399.721 244.42ZM414.625 240.273C417.921 240.273 421.185 240.821 424.427 241.93L426.368 236.252C422.52 234.937 418.602 234.273 414.625 234.273V240.273ZM424.427 241.93C427.545 242.995 430.409 244.733 433.028 247.189L437.131 242.811C433.932 239.812 430.342 237.611 426.368 236.252L424.427 241.93ZM433.04 247.2C435.554 249.531 437.641 252.696 439.237 256.812L444.831 254.643C442.973 249.849 440.423 245.863 437.119 242.8L433.04 247.2ZM439.237 256.812C440.791 260.82 441.625 265.912 441.625 272.182H447.625C447.625 265.422 446.732 259.544 444.831 254.643L439.237 256.812ZM441.625 272.182V276.727H447.625V272.182H441.625ZM444.625 273.727H390.807V279.727H444.625V273.727ZM393.807 276.727V267.455H387.807V276.727H393.807ZM390.807 270.455H433.716V264.455H390.807V270.455ZM436.716 267.455C436.716 263.106 435.843 259.113 434.025 255.547L428.68 258.272C430.013 260.887 430.716 263.924 430.716 267.455H436.716ZM434.036 255.567C432.247 251.991 429.659 249.129 426.299 247.042L423.133 252.139C425.531 253.628 427.367 255.646 428.669 258.251L434.036 255.567ZM426.311 247.05C422.915 244.918 418.98 243.909 414.625 243.909V249.909C418.028 249.909 420.82 250.688 423.121 252.132L426.311 247.05ZM414.625 243.909C409.833 243.909 405.53 245.107 401.848 247.61L405.22 252.572C407.78 250.832 410.871 249.909 414.625 249.909V243.909ZM401.853 247.606C398.33 249.99 395.605 253.115 393.71 256.941L399.086 259.605C400.524 256.703 402.557 254.374 405.215 252.576L401.853 247.606ZM393.71 256.941C391.833 260.729 390.898 264.792 390.898 269.091H396.898C396.898 265.692 397.63 262.544 399.086 259.605L393.71 256.941ZM390.898 269.091V275.273H396.898V269.091H390.898ZM390.898 275.273C390.898 280.879 391.863 285.832 393.937 290.015L399.313 287.349C397.75 284.198 396.898 280.212 396.898 275.273H390.898ZM393.951 290.041C396.039 294.15 398.986 297.369 402.795 299.591L405.818 294.409C403.082 292.812 400.908 290.486 399.299 287.322L393.951 290.041ZM402.813 299.602C406.604 301.778 410.937 302.818 415.716 302.818V296.818C411.828 296.818 408.555 295.979 405.8 294.398L402.813 299.602ZM415.716 302.818C418.812 302.818 421.697 302.385 424.335 301.471L422.37 295.802C420.462 296.463 418.256 296.818 415.716 296.818V302.818ZM424.357 301.463C427.039 300.51 429.397 299.079 431.388 297.16L427.225 292.84C425.883 294.133 424.271 295.126 422.348 295.809L424.357 301.463ZM431.409 297.141C433.42 295.166 434.934 292.752 435.979 289.962L430.361 287.856C429.589 289.915 428.527 291.561 427.205 292.859L431.409 297.141ZM432.36 291.797L442.723 294.707L444.345 288.93L433.981 286.021L432.36 291.797ZM440.669 290.929C439.718 293.993 438.129 296.675 435.876 299.007L440.192 303.175C443.091 300.174 445.168 296.674 446.399 292.707L440.669 290.929ZM435.888 298.994C433.639 301.296 430.827 303.134 427.394 304.48L429.584 310.066C433.726 308.442 437.278 306.158 440.18 303.187L435.888 298.994ZM427.413 304.472C424.02 305.775 420.135 306.455 415.716 306.455V312.455C420.751 312.455 425.381 311.68 429.564 310.073L427.413 304.472ZM471.67 308V311H474.67V308H471.67ZM460.943 308H457.943V311H460.943V308ZM460.943 238.182V235.182H457.943V238.182H460.943ZM471.307 238.182H474.307V235.182H471.307V238.182ZM471.307 249.091H468.307V252.091H471.307V249.091ZM472.216 249.091V252.091H474.135L474.94 250.348L472.216 249.091ZM479.67 240.545L481.297 243.066L481.305 243.061L481.313 243.056L479.67 240.545ZM504.989 240.182L503.549 242.814L503.558 242.819L503.566 242.823L504.989 240.182ZM513.261 248.909L510.582 250.259L510.586 250.267L513.261 248.909ZM516.216 308V311H519.216V308H516.216ZM505.489 308H502.489V311H505.489V308ZM501.216 251.545L499.01 253.578L499.015 253.584L499.02 253.589L501.216 251.545ZM480.307 249.136L478.86 246.508L478.854 246.512L478.847 246.515L480.307 249.136ZM473.989 255.636L471.352 254.206L471.352 254.206L473.989 255.636ZM468.67 266V308H474.67V266H468.67ZM471.67 305H460.943V311H471.67V305ZM463.943 308V238.182H457.943V308H463.943ZM460.943 241.182H471.307V235.182H460.943V241.182ZM468.307 238.182V249.091H474.307V238.182H468.307ZM471.307 252.091H472.216V246.091H471.307V252.091ZM474.94 250.348C476.334 247.328 478.434 244.914 481.297 243.066L478.044 238.025C474.24 240.48 471.371 243.763 469.492 247.834L474.94 250.348ZM481.313 243.056C484.024 241.282 487.705 240.273 492.58 240.273V234.273C486.908 234.273 481.984 235.446 478.027 238.035L481.313 243.056ZM492.58 240.273C496.889 240.273 500.515 241.154 503.549 242.814L506.428 237.55C502.372 235.331 497.724 234.273 492.58 234.273V240.273ZM503.566 242.823C506.523 244.415 508.864 246.849 510.582 250.259L515.94 247.559C513.719 243.151 510.545 239.767 506.411 237.54L503.566 242.823ZM510.586 250.267C512.279 253.6 513.216 258.005 513.216 263.636H519.216C519.216 257.389 518.183 251.975 515.936 247.551L510.586 250.267ZM513.216 263.636V308H519.216V263.636H513.216ZM516.216 305H505.489V311H516.216V305ZM508.489 308V264.364H502.489V308H508.489ZM508.489 264.364C508.489 258.363 506.922 253.273 503.412 249.502L499.02 253.589C501.207 255.939 502.489 259.394 502.489 264.364H508.489ZM503.422 249.512C499.902 245.693 495.13 243.909 489.489 243.909V249.909C493.787 249.909 496.833 251.217 499.01 253.578L503.422 249.512ZM489.489 243.909C485.616 243.909 482.048 244.753 478.86 246.508L481.754 251.764C483.959 250.55 486.512 249.909 489.489 249.909V243.909ZM478.847 246.515C475.652 248.295 473.151 250.889 471.352 254.206L476.626 257.067C477.917 254.687 479.628 252.948 481.766 251.757L478.847 246.515ZM471.352 254.206C469.515 257.591 468.67 261.564 468.67 266H474.67C474.67 262.315 475.371 259.379 476.626 257.067L471.352 254.206ZM585.273 253.818L586.09 256.705L589.118 255.848L588.117 252.864L585.273 253.818ZM575.636 256.545L572.83 257.605L573.802 260.182L576.453 259.432L575.636 256.545ZM572.955 251.864L570.549 253.656L570.569 253.683L570.589 253.709L572.955 251.864ZM568.227 248.045L569.569 245.362L569.569 245.362L568.227 248.045ZM549.864 249.5L551.564 251.971L551.57 251.968L549.864 249.5ZM548.545 263.227L546.676 265.573L546.676 265.573L548.545 263.227ZM557.636 267.091L556.909 270.001L556.921 270.004L557.636 267.091ZM568 269.636L567.284 272.55L567.292 272.552L568 269.636ZM581.955 276.591L579.813 278.691L579.818 278.697L579.823 278.702L581.955 276.591ZM583.091 299.273L580.669 297.503L580.663 297.51L580.658 297.518L583.091 299.273ZM541.591 304.818L543.248 302.317L543.248 302.317L541.591 304.818ZM532.727 291.273L532 288.362L529.2 289.062L529.791 291.887L532.727 291.273ZM542.909 288.727L545.814 287.978L545.07 285.095L542.181 285.817L542.909 288.727ZM548.409 297.182L546.694 299.643L546.701 299.648L546.707 299.652L548.409 297.182ZM571 296.818L572.756 299.251L572.76 299.248L571 296.818ZM572.909 283L570.807 285.14L570.817 285.15L570.827 285.16L572.909 283ZM565.091 279.273L564.406 282.194L564.411 282.195L565.091 279.273ZM553.455 276.545L552.763 279.465L552.77 279.466L553.455 276.545ZM539.364 269.5L537.161 271.537L537.171 271.547L537.181 271.558L539.364 269.5ZM538.227 247L535.816 245.215L535.81 245.223L535.804 245.231L538.227 247ZM547.364 239.864L546.143 237.123L546.135 237.127L547.364 239.864ZM576.818 241.818L574.989 244.196L574.998 244.203L576.818 241.818ZM584.456 250.932L574.819 253.659L576.453 259.432L586.09 256.705L584.456 250.932ZM578.443 255.486C577.719 253.566 576.666 251.744 575.32 250.019L570.589 253.709C571.607 255.014 572.342 256.313 572.83 257.605L578.443 255.486ZM575.36 250.071C573.887 248.094 571.921 246.538 569.569 245.362L566.886 250.729C568.533 251.553 569.719 252.543 570.549 253.656L575.36 250.071ZM569.569 245.362C567.021 244.088 563.959 243.545 560.545 243.545V249.545C563.374 249.545 565.434 250.003 566.886 250.729L569.569 245.362ZM560.545 243.545C555.807 243.545 551.614 244.642 548.157 247.032L551.57 251.968C553.81 250.418 556.738 249.545 560.545 249.545V243.545ZM548.163 247.029C544.664 249.437 542.636 252.771 542.636 256.909H548.636C548.636 255.047 549.427 253.442 551.564 251.971L548.163 247.029ZM542.636 256.909C542.636 260.41 543.963 263.411 546.676 265.573L550.415 260.881C549.25 259.952 548.636 258.741 548.636 256.909H542.636ZM546.676 265.573C549.11 267.513 552.627 268.931 556.909 270.001L558.364 264.18C554.403 263.19 551.86 262.033 550.415 260.881L546.676 265.573ZM556.921 270.004L567.284 272.55L568.716 266.723L558.352 264.177L556.921 270.004ZM567.292 272.552C573.23 273.993 577.288 276.116 579.813 278.691L584.097 274.49C580.5 270.823 575.255 268.31 568.708 266.721L567.292 272.552ZM579.823 278.702C582.258 281.161 583.545 284.352 583.545 288.545H589.545C589.545 282.981 587.773 278.203 584.086 274.48L579.823 278.702ZM583.545 288.545C583.545 291.926 582.586 294.878 580.669 297.503L585.513 301.043C588.201 297.364 589.545 293.165 589.545 288.545H583.545ZM580.658 297.518C578.74 300.177 576.008 302.35 572.327 303.986L574.764 309.469C579.265 307.468 582.896 304.672 585.524 301.027L580.658 297.518ZM572.327 303.986C568.692 305.601 564.364 306.455 559.273 306.455V312.455C565.03 312.455 570.217 311.489 574.764 309.469L572.327 303.986ZM559.273 306.455C552.581 306.455 547.305 305.004 543.248 302.317L539.934 307.319C545.21 310.814 551.722 312.455 559.273 312.455V306.455ZM543.248 302.317C539.298 299.701 536.759 295.897 535.664 290.658L529.791 291.887C531.18 298.528 534.551 303.754 539.934 307.319L543.248 302.317ZM533.455 294.183L543.637 291.638L542.181 285.817L532 288.362L533.455 294.183ZM540.004 289.477C541.119 293.797 543.306 297.283 546.694 299.643L550.124 294.72C548.118 293.323 546.638 291.173 545.814 287.978L540.004 289.477ZM546.707 299.652C550.075 301.972 554.285 303 559.091 303V297C555.109 297 552.198 296.149 550.111 294.711L546.707 299.652ZM559.091 303C564.488 303 569.144 301.857 572.756 299.251L569.244 294.385C566.978 296.021 563.694 297 559.091 297V303ZM572.76 299.248C576.314 296.673 578.455 293.27 578.455 289.091H572.455C572.455 290.912 571.626 292.66 569.24 294.389L572.76 299.248ZM578.455 289.091C578.455 285.878 577.293 283.06 574.991 280.84L570.827 285.16C571.919 286.213 572.455 287.455 572.455 289.091H578.455ZM575.011 280.86C572.768 278.656 569.566 277.234 565.771 276.351L564.411 282.195C567.646 282.948 569.657 284.01 570.807 285.14L575.011 280.86ZM565.775 276.352L554.139 273.625L552.77 279.466L564.406 282.194L565.775 276.352ZM554.146 273.626C548.054 272.183 543.989 270.033 541.546 267.442L537.181 271.558C540.738 275.331 546.067 277.878 552.763 279.465L554.146 273.626ZM541.566 267.463C539.163 264.864 537.909 261.601 537.909 257.455H531.909C531.909 262.945 533.625 267.712 537.161 271.537L541.566 267.463ZM537.909 257.455C537.909 254.117 538.833 251.259 540.65 248.769L535.804 245.231C533.198 248.802 531.909 252.913 531.909 257.455H537.909ZM540.639 248.785C542.54 246.215 545.156 244.143 548.592 242.601L546.135 237.127C541.874 239.039 538.399 241.724 535.816 245.215L540.639 248.785ZM548.584 242.604C552.023 241.073 555.992 240.273 560.545 240.273V234.273C555.281 234.273 550.462 235.2 546.143 237.123L548.584 242.604ZM560.545 240.273C567.046 240.273 571.745 241.7 574.989 244.196L578.647 239.44C574.013 235.875 567.863 234.273 560.545 234.273V240.273ZM574.998 244.203C578.467 246.851 580.942 250.341 582.428 254.772L588.117 252.864C586.27 247.356 583.109 242.846 578.639 239.434L574.998 244.203ZM614.557 305L612.978 307.551L612.988 307.557L612.997 307.563L614.557 305ZM603.33 292.455L600.628 293.76L600.633 293.769L600.637 293.778L603.33 292.455ZM603.33 254.727L600.626 253.428L600.623 253.434L603.33 254.727ZM614.33 241.909L615.967 244.423L615.971 244.42L614.33 241.909ZM641.648 239.091L642.618 236.252L642.618 236.252L641.648 239.091ZM651.33 245L649.278 247.189L649.284 247.194L649.29 247.2L651.33 245ZM658.284 255.727L661.081 254.643L661.081 254.643L658.284 255.727ZM660.875 276.727V279.727H663.875V276.727H660.875ZM607.057 276.727H604.057V279.727H607.057V276.727ZM607.057 267.455V264.455H604.057V267.455H607.057ZM649.966 267.455V270.455H652.966V267.455H649.966ZM647.602 256.909L644.919 258.251L644.924 258.261L644.93 258.272L647.602 256.909ZM640.966 249.591L639.371 252.132L639.377 252.136L639.383 252.139L640.966 249.591ZM619.784 250.091L621.465 252.576L621.47 252.572L619.784 250.091ZM612.648 258.273L609.96 256.941L609.96 256.941L612.648 258.273ZM612.875 288.682L610.187 290.015L610.194 290.028L610.201 290.041L612.875 288.682ZM620.557 297L619.045 299.591L619.054 299.597L619.063 299.602L620.557 297ZM639.602 298.636L640.585 301.471L640.596 301.467L640.607 301.463L639.602 298.636ZM645.557 295L647.638 297.16L647.649 297.151L647.659 297.141L645.557 295ZM649.42 288.909L650.231 286.021L647.579 285.276L646.611 287.856L649.42 288.909ZM659.784 291.818L662.649 292.707L663.563 289.763L660.595 288.93L659.784 291.818ZM654.284 301.091L656.43 303.187L656.436 303.181L656.442 303.175L654.284 301.091ZM644.739 307.273L645.814 310.073L645.824 310.07L645.834 310.066L644.739 307.273ZM631.966 306.455C625.69 306.455 620.448 305.074 616.117 302.437L612.997 307.563C618.424 310.866 624.787 312.455 631.966 312.455V306.455ZM616.135 302.449C611.79 299.76 608.422 296.015 606.022 291.131L600.637 293.778C603.51 299.622 607.627 304.24 612.978 307.551L616.135 302.449ZM606.031 291.149C603.656 286.234 602.42 280.423 602.42 273.636H596.42C596.42 281.153 597.791 287.887 600.628 293.76L606.031 291.149ZM602.42 273.636C602.42 266.851 603.656 261.004 606.036 256.021L600.623 253.434C597.791 259.36 596.42 266.118 596.42 273.636H602.42ZM606.033 256.027C608.453 250.993 611.769 247.158 615.967 244.423L612.692 239.396C607.496 242.781 603.479 247.492 600.626 253.428L606.033 256.027ZM615.971 244.42C620.155 241.684 625.085 240.273 630.875 240.273V234.273C624.059 234.273 617.959 235.952 612.688 239.398L615.971 244.42ZM630.875 240.273C634.171 240.273 637.435 240.821 640.677 241.93L642.618 236.252C638.77 234.937 634.852 234.273 630.875 234.273V240.273ZM640.677 241.93C643.795 242.995 646.659 244.733 649.278 247.189L653.381 242.811C650.182 239.812 646.592 237.611 642.618 236.252L640.677 241.93ZM649.29 247.2C651.804 249.531 653.891 252.696 655.487 256.812L661.081 254.643C659.223 249.849 656.673 245.863 653.369 242.8L649.29 247.2ZM655.487 256.812C657.041 260.82 657.875 265.912 657.875 272.182H663.875C663.875 265.422 662.982 259.544 661.081 254.643L655.487 256.812ZM657.875 272.182V276.727H663.875V272.182H657.875ZM660.875 273.727H607.057V279.727H660.875V273.727ZM610.057 276.727V267.455H604.057V276.727H610.057ZM607.057 270.455H649.966V264.455H607.057V270.455ZM652.966 267.455C652.966 263.106 652.093 259.113 650.275 255.547L644.93 258.272C646.263 260.887 646.966 263.924 646.966 267.455H652.966ZM650.286 255.567C648.497 251.991 645.909 249.129 642.549 247.042L639.383 252.139C641.781 253.628 643.617 255.646 644.919 258.251L650.286 255.567ZM642.561 247.05C639.165 244.918 635.23 243.909 630.875 243.909V249.909C634.278 249.909 637.07 250.688 639.371 252.132L642.561 247.05ZM630.875 243.909C626.083 243.909 621.78 245.107 618.098 247.61L621.47 252.572C624.03 250.832 627.121 249.909 630.875 249.909V243.909ZM618.103 247.606C614.58 249.99 611.855 253.115 609.96 256.941L615.336 259.605C616.774 256.703 618.807 254.374 621.465 252.576L618.103 247.606ZM609.96 256.941C608.083 260.729 607.148 264.792 607.148 269.091H613.148C613.148 265.692 613.88 262.544 615.336 259.605L609.96 256.941ZM607.148 269.091V275.273H613.148V269.091H607.148ZM607.148 275.273C607.148 280.879 608.113 285.832 610.187 290.015L615.563 287.349C614 284.198 613.148 280.212 613.148 275.273H607.148ZM610.201 290.041C612.289 294.15 615.236 297.369 619.045 299.591L622.068 294.409C619.332 292.812 617.158 290.486 615.549 287.322L610.201 290.041ZM619.063 299.602C622.854 301.778 627.187 302.818 631.966 302.818V296.818C628.078 296.818 624.805 295.979 622.05 294.398L619.063 299.602ZM631.966 302.818C635.062 302.818 637.947 302.385 640.585 301.471L638.62 295.802C636.712 296.463 634.506 296.818 631.966 296.818V302.818ZM640.607 301.463C643.289 300.51 645.647 299.079 647.638 297.16L643.475 292.84C642.133 294.133 640.521 295.126 638.598 295.809L640.607 301.463ZM647.659 297.141C649.67 295.166 651.184 292.752 652.229 289.962L646.611 287.856C645.839 289.915 644.777 291.561 643.455 292.859L647.659 297.141ZM648.61 291.797L658.973 294.707L660.595 288.93L650.231 286.021L648.61 291.797ZM656.919 290.929C655.968 293.993 654.379 296.675 652.126 299.007L656.442 303.175C659.341 300.174 661.418 296.674 662.649 292.707L656.919 290.929ZM652.138 298.994C649.889 301.296 647.077 303.134 643.644 304.48L645.834 310.066C649.976 308.442 653.528 306.158 656.43 303.187L652.138 298.994ZM643.663 304.472C640.27 305.775 636.385 306.455 631.966 306.455V312.455C637.001 312.455 641.631 311.68 645.814 310.073L643.663 304.472ZM709.557 224.909H706.557V227.909H709.557V224.909ZM709.557 214.909V211.909H706.557V214.909H709.557ZM779.375 214.909H782.375V211.909H779.375V214.909ZM779.375 224.909V227.909H782.375V224.909H779.375ZM750.102 224.909V221.909H747.102V224.909H750.102ZM750.102 308V311H753.102V308H750.102ZM738.83 308H735.83V311H738.83V308ZM738.83 224.909H741.83V221.909H738.83V224.909ZM712.557 224.909V214.909H706.557V224.909H712.557ZM709.557 217.909H779.375V211.909H709.557V217.909ZM776.375 214.909V224.909H782.375V214.909H776.375ZM779.375 221.909H750.102V227.909H779.375V221.909ZM747.102 224.909V308H753.102V224.909H747.102ZM750.102 305H738.83V311H750.102V305ZM741.83 308V224.909H735.83V308H741.83ZM738.83 221.909H709.557V227.909H738.83V221.909ZM788.068 308H785.068V311H788.068V308ZM788.068 238.182V235.182H785.068V238.182H788.068ZM798.432 238.182H801.432V235.182H798.432V238.182ZM798.432 248.727H795.432V251.727H798.432V248.727ZM799.159 248.727V251.727H801.251L801.974 249.764L799.159 248.727ZM806.068 240.318L804.441 237.798L804.441 237.798L806.068 240.318ZM822.977 237.273H825.977V234.558L823.276 234.288L822.977 237.273ZM822.977 248.182L822.25 251.092L825.977 252.024V248.182H822.977ZM820.477 247.773L819.984 250.732L820.023 250.738L820.063 250.744L820.477 247.773ZM807.341 249.591L808.743 252.243L808.754 252.237L807.341 249.591ZM801.068 255.409L798.521 253.825L798.515 253.833L801.068 255.409ZM798.795 308V311H801.795V308H798.795ZM791.068 308V238.182H785.068V308H791.068ZM788.068 241.182H798.432V235.182H788.068V241.182ZM795.432 238.182V248.727H801.432V238.182H795.432ZM798.432 251.727H799.159V245.727H798.432V251.727ZM801.974 249.764C803.004 246.968 804.863 244.667 807.695 242.839L804.441 237.798C800.607 240.273 797.859 243.577 796.344 247.69L801.974 249.764ZM807.695 242.839C810.517 241.017 813.703 240.091 817.341 240.091V234.091C812.615 234.091 808.286 235.316 804.441 237.798L807.695 242.839ZM817.341 240.091C818.094 240.091 819.051 240.105 820.219 240.135L820.372 234.137C819.176 234.107 818.164 234.091 817.341 234.091V240.091ZM820.219 240.135C821.381 240.165 822.186 240.209 822.679 240.258L823.276 234.288C822.556 234.216 821.573 234.168 820.372 234.137L820.219 240.135ZM819.977 237.273V248.182H825.977V237.273H819.977ZM823.705 245.271C823.155 245.134 822.15 244.977 820.892 244.802L820.063 250.744C821.411 250.932 822.072 251.048 822.25 251.092L823.705 245.271ZM820.97 244.814C819.519 244.572 818.005 244.455 816.432 244.455V250.455C817.708 250.455 818.89 250.55 819.984 250.732L820.97 244.814ZM816.432 244.455C812.606 244.455 809.08 245.261 805.928 246.945L808.754 252.237C810.935 251.072 813.47 250.455 816.432 250.455V244.455ZM805.939 246.939C802.842 248.576 800.352 250.88 798.521 253.825L803.616 256.993C804.875 254.969 806.567 253.394 808.743 252.243L805.939 246.939ZM798.515 253.833C796.681 256.805 795.795 260.163 795.795 263.818H801.795C801.795 261.17 802.425 258.922 803.621 256.985L798.515 253.833ZM795.795 263.818V308H801.795V263.818H795.795ZM798.795 305H788.068V311H798.795V305ZM844.193 307.136L842.916 309.851L842.925 309.855L842.935 309.86L844.193 307.136ZM835.602 299.818L833.099 301.471L833.106 301.482L835.602 299.818ZM834.784 278.455L837.318 280.061L837.322 280.054L837.326 280.047L834.784 278.455ZM849.83 269.364L850.471 272.294L850.482 272.292L850.492 272.29L849.83 269.364ZM859.511 267.636L859.129 264.661L859.122 264.662L859.511 267.636ZM869.83 266.409L870.138 269.393L870.153 269.392L870.168 269.39L869.83 266.409ZM875.648 264.909L874.18 262.293L874.166 262.3L874.152 262.308L875.648 264.909ZM873.83 250.455L871.682 252.55L871.689 252.556L871.695 252.563L873.83 250.455ZM850.739 250.091L852.57 252.467L852.57 252.467L850.739 250.091ZM844.602 257.273L843.593 260.098L846.171 261.018L847.323 258.536L844.602 257.273ZM834.42 253.636L831.663 252.455L830.406 255.388L833.411 256.462L834.42 253.636ZM841.693 243.727L843.538 246.093L843.541 246.09L841.693 243.727ZM851.693 238.727L852.449 241.63L852.458 241.628L852.466 241.626L851.693 238.727ZM870.148 238.091L869.595 241.04L869.612 241.043L869.63 241.046L870.148 238.091ZM878.648 241.318L877.104 243.891L877.11 243.894L877.117 243.898L878.648 241.318ZM885.511 248.727L882.883 250.174L882.883 250.174L885.511 248.727ZM888.239 308V311H891.239V308H888.239ZM877.511 308H874.511V311H877.511V308ZM877.511 298.545H880.511V295.545H877.511V298.545ZM876.966 298.545V295.545H875.078L874.261 297.247L876.966 298.545ZM873.33 303.409L875.47 305.512L875.47 305.512L873.33 303.409ZM866.557 307.818L865.371 305.062L865.371 305.062L866.557 307.818ZM868.602 297.5L867.123 294.89L867.111 294.897L868.602 297.5ZM875.239 291.045L872.638 289.551L872.631 289.562L872.625 289.573L875.239 291.045ZM877.511 272.909H880.511V264.623L875.207 270.989L877.511 272.909ZM874.511 274.409L875.32 277.298L875.339 277.293L875.358 277.287L874.511 274.409ZM869.239 275.545L869.695 278.511L869.713 278.508L869.732 278.505L869.239 275.545ZM863.466 276.364L863.808 279.344L863.829 279.342L863.85 279.339L863.466 276.364ZM858.966 276.909L859.354 279.884L859.357 279.883L858.966 276.909ZM851.148 278.682L852.086 281.531L852.096 281.528L852.107 281.524L851.148 278.682ZM845.33 282.273L843.127 280.236L843.125 280.238L845.33 282.273ZM847.284 297.182L845.576 299.648L845.592 299.659L845.608 299.67L847.284 297.182ZM856.239 306.636C852.199 306.636 848.621 305.878 845.452 304.413L842.935 309.86C846.978 311.728 851.43 312.636 856.239 312.636V306.636ZM845.471 304.422C842.337 302.947 839.903 300.862 838.098 298.154L833.106 301.482C835.543 305.138 838.837 307.932 842.916 309.851L845.471 304.422ZM838.106 298.165C836.363 295.527 835.42 292.248 835.42 288.182H829.42C829.42 293.207 830.599 297.686 833.099 301.471L838.106 298.165ZM835.42 288.182C835.42 284.553 836.138 281.922 837.318 280.061L832.251 276.848C830.279 279.957 829.42 283.811 829.42 288.182H835.42ZM837.326 280.047C838.624 277.976 840.344 276.365 842.528 275.185L839.676 269.906C836.588 271.574 834.096 273.903 832.242 276.862L837.326 280.047ZM842.528 275.185C844.898 273.905 847.54 272.936 850.471 272.294L849.188 266.433C845.756 267.185 842.58 268.338 839.676 269.906L842.528 275.185ZM850.492 272.29C853.614 271.583 856.751 271.023 859.901 270.611L859.122 264.662C855.787 265.098 852.469 265.69 849.167 266.438L850.492 272.29ZM859.894 270.612C864.125 270.068 867.537 269.662 870.138 269.393L869.521 263.425C866.85 263.701 863.383 264.114 859.129 264.661L859.894 270.612ZM870.168 269.39C872.937 269.075 875.381 268.523 877.143 267.51L874.152 262.308C873.49 262.689 872.056 263.137 869.491 263.428L870.168 269.39ZM877.115 267.526C879.52 266.176 880.511 263.812 880.511 261.273H874.511C874.511 261.785 874.419 262.025 874.376 262.109C874.347 262.165 874.311 262.219 874.18 262.293L877.115 267.526ZM880.511 261.273V260.909H874.511V261.273H880.511ZM880.511 260.909C880.511 255.869 879.118 251.54 875.964 248.346L871.695 252.563C873.45 254.339 874.511 256.979 874.511 260.909H880.511ZM875.977 248.36C872.785 245.088 868.186 243.727 862.784 243.727V249.727C867.261 249.727 870.026 250.851 871.682 252.55L875.977 248.36ZM862.784 243.727C857.256 243.727 852.513 244.935 848.907 247.715L852.57 252.467C854.782 250.762 858.069 249.727 862.784 249.727V243.727ZM848.907 247.715C845.73 250.164 843.319 252.913 841.881 256.009L847.323 258.536C848.249 256.541 849.929 254.503 852.57 252.467L848.907 247.715ZM845.611 254.447L835.429 250.811L833.411 256.462L843.593 260.098L845.611 254.447ZM837.178 254.818C838.837 250.948 840.98 248.088 843.538 246.093L839.848 241.362C836.346 244.094 833.641 247.84 831.663 252.455L837.178 254.818ZM843.541 246.09C846.293 243.938 849.257 242.462 852.449 241.63L850.937 235.824C846.917 236.871 843.215 238.729 839.845 241.364L843.541 246.09ZM852.466 241.626C855.868 240.719 859.184 240.273 862.42 240.273V234.273C858.627 234.273 854.791 234.796 850.92 235.829L852.466 241.626ZM862.42 240.273C864.429 240.273 866.814 240.518 869.595 241.04L870.701 235.142C867.663 234.573 864.896 234.273 862.42 234.273V240.273ZM869.63 241.046C872.184 241.493 874.672 242.431 877.104 243.891L880.191 238.746C877.169 236.933 873.991 235.719 870.666 235.136L869.63 241.046ZM877.117 243.898C879.339 245.217 881.277 247.257 882.883 250.174L888.14 247.281C886.109 243.592 883.472 240.692 880.179 238.738L877.117 243.898ZM882.883 250.174C884.369 252.874 885.239 256.739 885.239 262H891.239C891.239 256.17 890.29 251.187 888.14 247.281L882.883 250.174ZM885.239 262V308H891.239V262H885.239ZM888.239 305H877.511V311H888.239V305ZM880.511 308V298.545H874.511V308H880.511ZM877.511 295.545H876.966V301.545H877.511V295.545ZM874.261 297.247C873.725 298.365 872.748 299.72 871.19 301.307L875.47 305.512C877.305 303.644 878.753 301.756 879.67 299.844L874.261 297.247ZM871.19 301.307C869.828 302.693 867.924 303.965 865.371 305.062L867.742 310.574C870.826 309.248 873.438 307.58 875.47 305.512L871.19 301.307ZM865.371 305.062C863.028 306.07 860.017 306.636 856.239 306.636V312.636C860.582 312.636 864.449 311.99 867.742 310.574L865.371 305.062ZM857.875 303C862.504 303 866.625 302.09 870.094 300.103L867.111 294.897C864.761 296.243 861.731 297 857.875 297V303ZM870.082 300.11C873.439 298.206 876.07 295.683 877.853 292.518L872.625 289.573C871.438 291.68 869.644 293.46 867.123 294.89L870.082 300.11ZM877.84 292.54C879.604 289.471 880.511 286.185 880.511 282.727H874.511C874.511 285.088 873.904 287.348 872.638 289.551L877.84 292.54ZM880.511 282.727V272.909H874.511V282.727H880.511ZM875.207 270.989C875.353 270.813 875.398 270.85 875.079 271.01C874.79 271.154 874.335 271.334 873.665 271.531L875.358 277.287C876.234 277.03 877.051 276.732 877.762 276.376C878.443 276.036 879.215 275.55 879.816 274.83L875.207 270.989ZM873.702 271.52C872.316 271.908 870.668 272.266 868.745 272.586L869.732 278.505C871.81 278.158 873.677 277.758 875.32 277.298L873.702 271.52ZM868.782 272.58C866.836 272.88 864.935 273.149 863.082 273.388L863.85 279.339C865.754 279.093 867.702 278.817 869.695 278.511L868.782 272.58ZM863.124 273.383C861.267 273.596 859.749 273.78 858.575 273.935L859.357 279.883C860.486 279.735 861.967 279.555 863.808 279.344L863.124 273.383ZM858.578 273.934C855.615 274.321 852.815 274.953 850.188 275.839L852.107 281.524C854.328 280.775 856.741 280.225 859.354 279.884L858.578 273.934ZM850.21 275.832C847.406 276.755 845.007 278.203 843.127 280.236L847.532 284.309C848.622 283.131 850.101 282.185 852.086 281.531L850.21 275.832ZM843.125 280.238C841.031 282.506 840.148 285.458 840.148 288.727H846.148C846.148 286.542 846.719 285.191 847.534 284.308L843.125 280.238ZM840.148 288.727C840.148 293.311 841.91 297.11 845.576 299.648L848.992 294.715C847.143 293.436 846.148 291.598 846.148 288.727H840.148ZM845.608 299.67C849.01 301.962 853.166 303 857.875 303V297C854.038 297 851.134 296.159 848.961 294.694L845.608 299.67ZM919.273 304.818L917.631 307.329L917.631 307.329L919.273 304.818ZM908.455 254.682L905.753 253.376L905.75 253.383L908.455 254.682ZM919.455 241.909L921.092 244.423L921.096 244.42L919.455 241.909ZM958.955 247.636L961.333 245.808L961.333 245.808L958.955 247.636ZM963.636 259.091V262.091H967.082L966.608 258.678L963.636 259.091ZM952.909 259.091L950.004 259.838L950.583 262.091H952.909V259.091ZM947.455 250.636L945.458 252.876L945.471 252.887L945.484 252.899L947.455 250.636ZM925.182 250.182L926.884 252.652L926.889 252.648L925.182 250.182ZM917.864 259.318L915.124 258.096L915.12 258.106L917.864 259.318ZM917.818 287.182L915.056 288.353L915.06 288.362L915.064 288.371L917.818 287.182ZM925.091 296.5L923.356 298.948L923.367 298.955L925.091 296.5ZM943.773 298.364L942.595 295.604L942.595 295.604L943.773 298.364ZM949.545 294.182L951.813 296.147L951.813 296.147L949.545 294.182ZM952.909 287.636V284.636H950.594L950.007 286.876L952.909 287.636ZM963.636 287.636L966.604 288.073L967.11 284.636H963.636V287.636ZM959.136 298.773L956.707 297.012L956.704 297.016L959.136 298.773ZM949.727 306.591L951.052 309.283L951.061 309.278L949.727 306.591ZM936.182 306.455C930.125 306.455 925.08 305.031 920.914 302.307L917.631 307.329C922.92 310.787 929.148 312.455 936.182 312.455V306.455ZM920.914 302.307C916.682 299.54 913.404 295.723 911.079 290.771L905.648 293.32C908.415 299.216 912.409 303.915 917.631 307.329L920.914 302.307ZM911.079 290.771C908.749 285.806 907.545 280.055 907.545 273.455H901.545C901.545 280.793 902.887 287.437 905.648 293.32L911.079 290.771ZM907.545 273.455C907.545 266.734 908.779 260.934 911.159 255.981L905.75 253.383C902.918 259.278 901.545 265.993 901.545 273.455H907.545ZM911.156 255.987C913.574 250.984 916.89 247.161 921.092 244.423L917.817 239.396C912.625 242.779 908.608 247.471 905.753 253.376L911.156 255.987ZM921.096 244.42C925.28 241.684 930.21 240.273 936 240.273V234.273C929.184 234.273 923.084 235.952 917.813 239.398L921.096 244.42ZM936 240.273C940.532 240.273 944.519 241.11 948.016 242.724L950.53 237.276C946.148 235.253 941.286 234.273 936 234.273V240.273ZM948.016 242.724C951.537 244.349 954.372 246.596 956.576 249.464L961.333 245.808C958.507 242.131 954.887 239.287 950.53 237.276L948.016 242.724ZM956.576 249.464C958.753 252.297 960.125 255.619 960.665 259.504L966.608 258.678C965.935 253.835 964.187 249.521 961.333 245.808L956.576 249.464ZM963.636 256.091H952.909V262.091H963.636V256.091ZM955.815 258.344C954.825 254.495 952.636 251.171 949.425 248.374L945.484 252.899C947.91 255.011 949.357 257.323 950.004 259.838L955.815 258.344ZM949.451 248.397C945.979 245.302 941.443 243.909 936.182 243.909V249.909C940.375 249.909 943.354 251.001 945.458 252.876L949.451 248.397ZM936.182 243.909C931.448 243.909 927.173 245.154 923.474 247.715L926.889 252.648C929.493 250.846 932.552 249.909 936.182 249.909V243.909ZM923.479 247.712C919.844 250.217 917.074 253.724 915.124 258.096L920.603 260.541C922.168 257.033 924.277 254.449 926.884 252.652L923.479 247.712ZM915.12 258.106C913.189 262.475 912.273 267.496 912.273 273.091H918.273C918.273 268.141 919.084 263.98 920.608 260.531L915.12 258.106ZM912.273 273.091C912.273 278.793 913.169 283.905 915.056 288.353L920.58 286.01C919.073 282.459 918.273 278.176 918.273 273.091H912.273ZM915.064 288.371C916.978 292.804 919.727 296.375 923.356 298.948L926.826 294.052C924.213 292.201 922.113 289.559 920.572 285.993L915.064 288.371ZM923.367 298.955C927.075 301.558 931.388 302.818 936.182 302.818V296.818C932.49 296.818 929.41 295.866 926.814 294.045L923.367 298.955ZM936.182 302.818C939.323 302.818 942.26 302.271 944.95 301.123L942.595 295.604C940.74 296.396 938.617 296.818 936.182 296.818V302.818ZM944.95 301.123C947.63 299.98 949.93 298.318 951.813 296.147L947.278 292.217C946.009 293.682 944.461 294.808 942.595 295.604L944.95 301.123ZM951.813 296.147C953.717 293.949 955.039 291.344 955.811 288.396L950.007 286.876C949.446 289.019 948.525 290.778 947.278 292.217L951.813 296.147ZM952.909 290.636H963.636V284.636H952.909V290.636ZM960.668 287.2C960.131 290.853 958.811 294.109 956.707 297.012L961.565 300.533C964.249 296.83 965.93 292.662 966.604 288.073L960.668 287.2ZM956.704 297.016C954.649 299.863 951.903 302.163 948.394 303.903L951.061 309.278C955.37 307.14 958.897 304.228 961.568 300.529L956.704 297.016ZM948.402 303.899C945.008 305.57 940.961 306.455 936.182 306.455V312.455C941.706 312.455 946.689 311.43 951.052 309.283L948.402 303.899ZM989.318 282.545L986.318 282.587L986.411 289.329L991.357 284.746L989.318 282.545ZM989.136 269.273V266.273H986.095L986.137 269.314L989.136 269.273ZM991.318 269.273V272.273H992.576L993.458 271.375L991.318 269.273ZM1021.86 238.182V235.182H1020.61L1019.72 236.079L1021.86 238.182ZM1035.14 238.182L1037.27 240.291L1042.32 235.182H1035.14V238.182ZM1002.59 271.091V274.091H1003.84L1004.72 273.2L1002.59 271.091ZM1001.68 271.091V268.091H1000.51L999.643 268.89L1001.68 271.091ZM979.318 308H976.318V311H979.318V308ZM979.318 214.909V211.909H976.318V214.909H979.318ZM990.045 214.909H993.045V211.909H990.045V214.909ZM990.045 308V311H993.045V308H990.045ZM1023.68 308L1021.33 309.859L1022.23 311H1023.68V308ZM996.409 273.455L994.313 271.308L992.381 273.194L994.054 275.313L996.409 273.455ZM1004.05 266L1006.4 264.137L1004.33 261.529L1001.95 263.853L1004.05 266ZM1037.32 308V311H1043.52L1039.67 306.137L1037.32 308ZM992.318 282.504L992.136 269.232L986.137 269.314L986.318 282.587L992.318 282.504ZM989.136 272.273H991.318V266.273H989.136V272.273ZM993.458 271.375L1024 240.284L1019.72 236.079L989.178 267.17L993.458 271.375ZM1021.86 241.182H1035.14V235.182H1021.86V241.182ZM1033 236.072L1000.46 268.981L1004.72 273.2L1037.27 240.291L1033 236.072ZM1002.59 268.091H1001.68V274.091H1002.59V268.091ZM999.643 268.89L987.279 280.345L991.357 284.746L1003.72 273.292L999.643 268.89ZM982.318 308V214.909H976.318V308H982.318ZM979.318 217.909H990.045V211.909H979.318V217.909ZM987.045 214.909V308H993.045V214.909H987.045ZM990.045 305H979.318V311H990.045V305ZM1026.04 306.141L998.764 271.596L994.054 275.313L1021.33 309.859L1026.04 306.141ZM998.505 275.601L1006.14 268.147L1001.95 263.853L994.313 271.308L998.505 275.601ZM1001.69 267.863L1034.97 309.863L1039.67 306.137L1006.4 264.137L1001.69 267.863ZM1037.32 305H1023.68V311H1037.32V305ZM1057.93 305L1056.35 307.551L1056.36 307.557L1056.37 307.563L1057.93 305ZM1046.7 292.455L1044 293.76L1044.01 293.769L1044.01 293.778L1046.7 292.455ZM1046.7 254.727L1044 253.428L1044 253.434L1046.7 254.727ZM1057.7 241.909L1059.34 244.423L1059.35 244.42L1057.7 241.909ZM1085.02 239.091L1085.99 236.252L1085.99 236.252L1085.02 239.091ZM1094.7 245L1092.65 247.189L1092.66 247.194L1092.66 247.2L1094.7 245ZM1101.66 255.727L1104.46 254.643L1104.46 254.643L1101.66 255.727ZM1104.25 276.727V279.727H1107.25V276.727H1104.25ZM1050.43 276.727H1047.43V279.727H1050.43V276.727ZM1050.43 267.455V264.455H1047.43V267.455H1050.43ZM1093.34 267.455V270.455H1096.34V267.455H1093.34ZM1090.98 256.909L1088.29 258.251L1088.3 258.261L1088.3 258.272L1090.98 256.909ZM1084.34 249.591L1082.75 252.132L1082.75 252.136L1082.76 252.139L1084.34 249.591ZM1063.16 250.091L1064.84 252.576L1064.85 252.572L1063.16 250.091ZM1056.02 258.273L1053.33 256.941L1053.33 256.941L1056.02 258.273ZM1056.25 288.682L1053.56 290.015L1053.57 290.028L1053.58 290.041L1056.25 288.682ZM1063.93 297L1062.42 299.591L1062.43 299.597L1062.44 299.602L1063.93 297ZM1082.98 298.636L1083.96 301.471L1083.97 301.467L1083.98 301.463L1082.98 298.636ZM1088.93 295L1091.01 297.16L1091.02 297.151L1091.03 297.141L1088.93 295ZM1092.8 288.909L1093.61 286.021L1090.95 285.276L1089.99 287.856L1092.8 288.909ZM1103.16 291.818L1106.02 292.707L1106.94 289.763L1103.97 288.93L1103.16 291.818ZM1097.66 301.091L1099.8 303.187L1099.81 303.181L1099.82 303.175L1097.66 301.091ZM1088.11 307.273L1089.19 310.073L1089.2 310.07L1089.21 310.066L1088.11 307.273ZM1075.34 306.455C1069.06 306.455 1063.82 305.074 1059.49 302.437L1056.37 307.563C1061.8 310.866 1068.16 312.455 1075.34 312.455V306.455ZM1059.51 302.449C1055.16 299.76 1051.8 296.015 1049.4 291.131L1044.01 293.778C1046.88 299.622 1051 304.24 1056.35 307.551L1059.51 302.449ZM1049.41 291.149C1047.03 286.234 1045.8 280.423 1045.8 273.636H1039.8C1039.8 281.153 1041.17 287.887 1044 293.76L1049.41 291.149ZM1045.8 273.636C1045.8 266.851 1047.03 261.004 1049.41 256.021L1044 253.434C1041.17 259.36 1039.8 266.118 1039.8 273.636H1045.8ZM1049.41 256.027C1051.83 250.993 1055.14 247.158 1059.34 244.423L1056.07 239.396C1050.87 242.781 1046.85 247.492 1044 253.428L1049.41 256.027ZM1059.35 244.42C1063.53 241.684 1068.46 240.273 1074.25 240.273V234.273C1067.43 234.273 1061.33 235.952 1056.06 239.398L1059.35 244.42ZM1074.25 240.273C1077.55 240.273 1080.81 240.821 1084.05 241.93L1085.99 236.252C1082.14 234.937 1078.23 234.273 1074.25 234.273V240.273ZM1084.05 241.93C1087.17 242.995 1090.03 244.733 1092.65 247.189L1096.76 242.811C1093.56 239.812 1089.97 237.611 1085.99 236.252L1084.05 241.93ZM1092.66 247.2C1095.18 249.531 1097.27 252.696 1098.86 256.812L1104.46 254.643C1102.6 249.849 1100.05 245.863 1096.74 242.8L1092.66 247.2ZM1098.86 256.812C1100.42 260.82 1101.25 265.912 1101.25 272.182H1107.25C1107.25 265.422 1106.36 259.544 1104.46 254.643L1098.86 256.812ZM1101.25 272.182V276.727H1107.25V272.182H1101.25ZM1104.25 273.727H1050.43V279.727H1104.25V273.727ZM1053.43 276.727V267.455H1047.43V276.727H1053.43ZM1050.43 270.455H1093.34V264.455H1050.43V270.455ZM1096.34 267.455C1096.34 263.106 1095.47 259.113 1093.65 255.547L1088.3 258.272C1089.64 260.887 1090.34 263.924 1090.34 267.455H1096.34ZM1093.66 255.567C1091.87 251.991 1089.28 249.129 1085.92 247.042L1082.76 252.139C1085.16 253.628 1086.99 255.646 1088.29 258.251L1093.66 255.567ZM1085.94 247.05C1082.54 244.918 1078.6 243.909 1074.25 243.909V249.909C1077.65 249.909 1080.45 250.688 1082.75 252.132L1085.94 247.05ZM1074.25 243.909C1069.46 243.909 1065.16 245.107 1061.47 247.61L1064.85 252.572C1067.41 250.832 1070.5 249.909 1074.25 249.909V243.909ZM1061.48 247.606C1057.95 249.99 1055.23 253.115 1053.33 256.941L1058.71 259.605C1060.15 256.703 1062.18 254.374 1064.84 252.576L1061.48 247.606ZM1053.33 256.941C1051.46 260.729 1050.52 264.792 1050.52 269.091H1056.52C1056.52 265.692 1057.25 262.544 1058.71 259.605L1053.33 256.941ZM1050.52 269.091V275.273H1056.52V269.091H1050.52ZM1050.52 275.273C1050.52 280.879 1051.49 285.832 1053.56 290.015L1058.94 287.349C1057.38 284.198 1056.52 280.212 1056.52 275.273H1050.52ZM1053.58 290.041C1055.66 294.15 1058.61 297.369 1062.42 299.591L1065.44 294.409C1062.71 292.812 1060.53 290.486 1058.92 287.322L1053.58 290.041ZM1062.44 299.602C1066.23 301.778 1070.56 302.818 1075.34 302.818V296.818C1071.45 296.818 1068.18 295.979 1065.43 294.398L1062.44 299.602ZM1075.34 302.818C1078.44 302.818 1081.32 302.385 1083.96 301.471L1081.99 295.802C1080.09 296.463 1077.88 296.818 1075.34 296.818V302.818ZM1083.98 301.463C1086.66 300.51 1089.02 299.079 1091.01 297.16L1086.85 292.84C1085.51 294.133 1083.9 295.126 1081.97 295.809L1083.98 301.463ZM1091.03 297.141C1093.04 295.166 1094.56 292.752 1095.6 289.962L1089.99 287.856C1089.21 289.915 1088.15 291.561 1086.83 292.859L1091.03 297.141ZM1091.98 291.797L1102.35 294.707L1103.97 288.93L1093.61 286.021L1091.98 291.797ZM1100.29 290.929C1099.34 293.993 1097.75 296.675 1095.5 299.007L1099.82 303.175C1102.72 300.174 1104.79 296.674 1106.02 292.707L1100.29 290.929ZM1095.51 298.994C1093.26 301.296 1090.45 303.134 1087.02 304.48L1089.21 310.066C1093.35 308.442 1096.9 306.158 1099.8 303.187L1095.51 298.994ZM1087.04 304.472C1083.65 305.775 1079.76 306.455 1075.34 306.455V312.455C1080.38 312.455 1085.01 311.68 1089.19 310.073L1087.04 304.472ZM1120.57 308H1117.57V311H1120.57V308ZM1120.57 238.182V235.182H1117.57V238.182H1120.57ZM1130.93 238.182H1133.93V235.182H1130.93V238.182ZM1130.93 248.727H1127.93V251.727H1130.93V248.727ZM1131.66 248.727V251.727H1133.75L1134.47 249.764L1131.66 248.727ZM1138.57 240.318L1136.94 237.798L1136.94 237.798L1138.57 240.318ZM1155.48 237.273H1158.48V234.558L1155.78 234.288L1155.48 237.273ZM1155.48 248.182L1154.75 251.092L1158.48 252.024V248.182H1155.48ZM1152.98 247.773L1152.48 250.732L1152.52 250.738L1152.56 250.744L1152.98 247.773ZM1139.84 249.591L1141.24 252.243L1141.25 252.237L1139.84 249.591ZM1133.57 255.409L1131.02 253.825L1131.02 253.833L1133.57 255.409ZM1131.3 308V311H1134.3V308H1131.3ZM1123.57 308V238.182H1117.57V308H1123.57ZM1120.57 241.182H1130.93V235.182H1120.57V241.182ZM1127.93 238.182V248.727H1133.93V238.182H1127.93ZM1130.93 251.727H1131.66V245.727H1130.93V251.727ZM1134.47 249.764C1135.5 246.968 1137.36 244.667 1140.2 242.839L1136.94 237.798C1133.11 240.273 1130.36 243.577 1128.84 247.69L1134.47 249.764ZM1140.2 242.839C1143.02 241.017 1146.2 240.091 1149.84 240.091V234.091C1145.11 234.091 1140.79 235.316 1136.94 237.798L1140.2 242.839ZM1149.84 240.091C1150.59 240.091 1151.55 240.105 1152.72 240.135L1152.87 234.137C1151.68 234.107 1150.66 234.091 1149.84 234.091V240.091ZM1152.72 240.135C1153.88 240.165 1154.69 240.209 1155.18 240.258L1155.78 234.288C1155.06 234.216 1154.07 234.168 1152.87 234.137L1152.72 240.135ZM1152.48 237.273V248.182H1158.48V237.273H1152.48ZM1156.2 245.271C1155.66 245.134 1154.65 244.977 1153.39 244.802L1152.56 250.744C1153.91 250.932 1154.57 251.048 1154.75 251.092L1156.2 245.271ZM1153.47 244.814C1152.02 244.572 1150.5 244.455 1148.93 244.455V250.455C1150.21 250.455 1151.39 250.55 1152.48 250.732L1153.47 244.814ZM1148.93 244.455C1145.11 244.455 1141.58 245.261 1138.43 246.945L1141.25 252.237C1143.43 251.072 1145.97 250.455 1148.93 250.455V244.455ZM1138.44 246.939C1135.34 248.576 1132.85 250.88 1131.02 253.825L1136.12 256.993C1137.38 254.969 1139.07 253.394 1141.24 252.243L1138.44 246.939ZM1131.02 253.833C1129.18 256.805 1128.3 260.163 1128.3 263.818H1134.3C1134.3 261.17 1134.93 258.922 1136.12 256.985L1131.02 253.833ZM1128.3 263.818V308H1134.3V263.818H1128.3ZM1131.3 305H1120.57V311H1131.3V305Z" fill="black"/>
<defs>
<linearGradient id="paint0_linear_318_3" x1="743.351" y1="290.632" x2="779.903" y2="209.013" gradientUnits="userSpaceOnUse">
<stop stop-color="#FF6384" stop-opacity="0.62"/>
<stop offset="1" stop-color="#41A9FF" stop-opacity="0"/>
</linearGradient>
<linearGradient id="paint1_linear_318_3" x1="743.351" y1="290.632" x2="779.903" y2="209.013" gradientUnits="userSpaceOnUse">
<stop stop-color="#FF6384" stop-opacity="0.62"/>
<stop offset="1" stop-color="#41A9FF" stop-opacity="0"/>
</linearGradient>
<linearGradient id="paint2_linear_318_3" x1="634.029" y1="403.189" x2="681.647" y2="274.642" gradientUnits="userSpaceOnUse">
<stop stop-color="white"/>
<stop offset="1" stop-color="white" stop-opacity="0"/>
</linearGradient>
<radialGradient id="paint3_radial_318_3" cx="0" cy="0" r="1" gradientUnits="userSpaceOnUse" gradientTransform="translate(442.953 475.476) rotate(-174.171) scale(1261.16 68.3717)">
<stop stop-color="white"/>
<stop offset="1" stop-color="white" stop-opacity="0"/>
</radialGradient>
<linearGradient id="paint4_linear_318_3" x1="607.796" y1="240.597" x2="569.194" y2="321.266" gradientUnits="userSpaceOnUse">
<stop stop-color="#4BC0C0" stop-opacity="0.45"/>
<stop offset="1" stop-color="#41A9FF" stop-opacity="0"/>
</linearGradient>
<linearGradient id="paint5_linear_318_3" x1="607.796" y1="240.597" x2="569.194" y2="321.266" gradientUnits="userSpaceOnUse">
<stop stop-color="#4BC0C0" stop-opacity="0.45"/>
<stop offset="1" stop-color="#41A9FF" stop-opacity="0"/>
</linearGradient>
<linearGradient id="paint6_linear_318_3" x1="719.927" y1="130.84" x2="669.077" y2="258.141" gradientUnits="userSpaceOnUse">
<stop stop-color="white"/>
<stop offset="1" stop-color="white" stop-opacity="0"/>
</linearGradient>
<radialGradient id="paint7_radial_318_3" cx="0" cy="0" r="1" gradientUnits="userSpaceOnUse" gradientTransform="translate(912.769 63.4037) rotate(7.27694) scale(1261.16 68.3711)">
<stop stop-color="white"/>
<stop offset="1" stop-color="white" stop-opacity="0"/>
</radialGradient>
</defs>
</svg>
