<svg width="1107" height="583" viewBox="0 0 1107 583" fill="none" xmlns="http://www.w3.org/2000/svg">
<path d="M996.735 355.793C1026.94 526.345 536.609 622.054 247.957 493.282L142.922 535.281L56.1992 357.912L477.718 401.406L369.4 444.717C574.132 541.968 905.796 490.177 996.726 355.792L996.735 355.793Z" fill="url(#paint0_linear_319_4)" stroke="url(#paint1_linear_319_4)" stroke-width="7.7696"/>
<path opacity="0.69886" d="M984.822 387.358C954.387 536.931 506.36 603.401 244.511 481.745L153.774 518.026L80.1023 368.57L436.193 405.109L343.457 442.19C547.762 543.992 852.117 504.339 984.824 387.359L984.822 387.358Z" stroke="url(#paint2_linear_319_4)" stroke-width="7.7696" stroke-miterlimit="10"/>
<path opacity="0.69886" d="M148.129 525.612L160.072 520.842L244.262 487.161C377.325 546.385 548.019 561.016 715.775 538.553C821.182 524.44 896.575 486.799 896.575 486.799C529.07 599.877 425.738 433.357 111.753 451.781L148.129 525.612Z" fill="url(#paint3_radial_319_4)"/>
<path d="M71.7247 225.037C45.8419 53.7783 538.431 -29.5113 823.737 106.512L929.8 67.1811L1012.01 246.683L591.728 192.553L701.106 151.993C498.896 49.6004 166.03 92.9943 71.7337 225.038L71.7247 225.037Z" fill="url(#paint4_linear_319_4)" stroke="url(#paint5_linear_319_4)" stroke-width="7.7696"/>
<path opacity="0.69886" d="M84.4308 193.783C118.635 45.0285 568.199 -10.0995 826.891 118.132L918.515 84.1554L988.387 235.424L633.333 189.9L726.977 155.174C525.309 48.2439 220.049 80.1939 84.4288 193.782L84.4308 193.783Z" stroke="url(#paint6_linear_319_4)" stroke-width="7.7696" stroke-miterlimit="10"/>
<path opacity="0.69886" d="M924.351 76.7145L912.291 81.181L827.277 112.724C695.752 50.1574 525.483 31.2186 357.213 49.4359C251.483 60.8811 175.162 96.605 175.162 96.605C545.407 -7.15037 644.499 161.925 958.85 151.44L924.351 76.7145Z" fill="url(#paint7_radial_319_4)"/>
<path d="M37.2727 336V242.909H93.4545V252.909H48.5455V284.364H90.5455V294.364H48.5455V326H94.1818V336H37.2727ZM120.318 266.182L137.045 294.727L153.773 266.182H166.136L143.591 301.091L166.136 336H153.773L137.045 308.909L120.318 336H107.955L130.136 301.091L107.955 266.182H120.318ZM181.443 362.182V266.182H191.807V277.273H193.08C193.867 276.061 194.958 274.515 196.352 272.636C197.777 270.727 199.807 269.03 202.443 267.545C205.11 266.03 208.716 265.273 213.261 265.273C219.14 265.273 224.322 266.742 228.807 269.682C233.292 272.621 236.792 276.788 239.307 282.182C241.822 287.576 243.08 293.939 243.08 301.273C243.08 308.667 241.822 315.076 239.307 320.5C236.792 325.894 233.307 330.076 228.852 333.045C224.398 335.985 219.261 337.455 213.443 337.455C208.958 337.455 205.367 336.712 202.67 335.227C199.973 333.712 197.898 332 196.443 330.091C194.989 328.152 193.867 326.545 193.08 325.273H192.17V362.182H181.443ZM191.989 301.091C191.989 306.364 192.761 311.015 194.307 315.045C195.852 319.045 198.11 322.182 201.08 324.455C204.049 326.697 207.686 327.818 211.989 327.818C216.473 327.818 220.216 326.636 223.216 324.273C226.246 321.879 228.519 318.667 230.034 314.636C231.58 310.576 232.352 306.061 232.352 301.091C232.352 296.182 231.595 291.758 230.08 287.818C228.595 283.848 226.337 280.712 223.307 278.409C220.307 276.076 216.534 274.909 211.989 274.909C207.625 274.909 203.958 276.015 200.989 278.227C198.019 280.409 195.777 283.47 194.261 287.409C192.746 291.318 191.989 295.879 191.989 301.091ZM288.716 337.455C281.989 337.455 276.186 335.97 271.307 333C266.458 330 262.716 325.818 260.08 320.455C257.473 315.061 256.17 308.788 256.17 301.636C256.17 294.485 257.473 288.182 260.08 282.727C262.716 277.242 266.383 272.97 271.08 269.909C275.807 266.818 281.322 265.273 287.625 265.273C291.261 265.273 294.852 265.879 298.398 267.091C301.943 268.303 305.17 270.273 308.08 273C310.989 275.697 313.307 279.273 315.034 283.727C316.761 288.182 317.625 293.667 317.625 300.182V304.727H263.807V295.455H306.716C306.716 291.515 305.928 288 304.352 284.909C302.807 281.818 300.595 279.379 297.716 277.591C294.867 275.803 291.504 274.909 287.625 274.909C283.352 274.909 279.655 275.97 276.534 278.091C273.443 280.182 271.064 282.909 269.398 286.273C267.731 289.636 266.898 293.242 266.898 297.091V303.273C266.898 308.545 267.807 313.015 269.625 316.682C271.473 320.318 274.034 323.091 277.307 325C280.58 326.879 284.383 327.818 288.716 327.818C291.534 327.818 294.08 327.424 296.352 326.636C298.655 325.818 300.64 324.606 302.307 323C303.973 321.364 305.261 319.333 306.17 316.909L316.534 319.818C315.443 323.333 313.61 326.424 311.034 329.091C308.458 331.727 305.277 333.788 301.489 335.273C297.701 336.727 293.443 337.455 288.716 337.455ZM344.67 294V336H333.943V266.182H344.307V277.091H345.216C346.852 273.545 349.337 270.697 352.67 268.545C356.004 266.364 360.307 265.273 365.58 265.273C370.307 265.273 374.443 266.242 377.989 268.182C381.534 270.091 384.292 273 386.261 276.909C388.231 280.788 389.216 285.697 389.216 291.636V336H378.489V292.364C378.489 286.879 377.064 282.606 374.216 279.545C371.367 276.455 367.458 274.909 362.489 274.909C359.064 274.909 356.004 275.652 353.307 277.136C350.64 278.621 348.534 280.788 346.989 283.636C345.443 286.485 344.67 289.939 344.67 294ZM458.273 281.818L448.636 284.545C448.03 282.939 447.136 281.379 445.955 279.864C444.803 278.318 443.227 277.045 441.227 276.045C439.227 275.045 436.667 274.545 433.545 274.545C429.273 274.545 425.712 275.53 422.864 277.5C420.045 279.439 418.636 281.909 418.636 284.909C418.636 287.576 419.606 289.682 421.545 291.227C423.485 292.773 426.515 294.061 430.636 295.091L441 297.636C447.242 299.152 451.894 301.47 454.955 304.591C458.015 307.682 459.545 311.667 459.545 316.545C459.545 320.545 458.394 324.121 456.091 327.273C453.818 330.424 450.636 332.909 446.545 334.727C442.455 336.545 437.697 337.455 432.273 337.455C425.152 337.455 419.258 335.909 414.591 332.818C409.924 329.727 406.97 325.212 405.727 319.273L415.909 316.727C416.879 320.485 418.712 323.303 421.409 325.182C424.136 327.061 427.697 328 432.091 328C437.091 328 441.061 326.939 444 324.818C446.97 322.667 448.455 320.091 448.455 317.091C448.455 314.667 447.606 312.636 445.909 311C444.212 309.333 441.606 308.091 438.091 307.273L426.455 304.545C420.061 303.03 415.364 300.682 412.364 297.5C409.394 294.288 407.909 290.273 407.909 285.455C407.909 281.515 409.015 278.03 411.227 275C413.47 271.97 416.515 269.591 420.364 267.864C424.242 266.136 428.636 265.273 433.545 265.273C440.455 265.273 445.879 266.788 449.818 269.818C453.788 272.848 456.606 276.848 458.273 281.818ZM504.966 337.455C498.239 337.455 492.436 335.97 487.557 333C482.708 330 478.966 325.818 476.33 320.455C473.723 315.061 472.42 308.788 472.42 301.636C472.42 294.485 473.723 288.182 476.33 282.727C478.966 277.242 482.633 272.97 487.33 269.909C492.057 266.818 497.572 265.273 503.875 265.273C507.511 265.273 511.102 265.879 514.648 267.091C518.193 268.303 521.42 270.273 524.33 273C527.239 275.697 529.557 279.273 531.284 283.727C533.011 288.182 533.875 293.667 533.875 300.182V304.727H480.057V295.455H522.966C522.966 291.515 522.178 288 520.602 284.909C519.057 281.818 516.845 279.379 513.966 277.591C511.117 275.803 507.754 274.909 503.875 274.909C499.602 274.909 495.905 275.97 492.784 278.091C489.693 280.182 487.314 282.909 485.648 286.273C483.981 289.636 483.148 293.242 483.148 297.091V303.273C483.148 308.545 484.057 313.015 485.875 316.682C487.723 320.318 490.284 323.091 493.557 325C496.83 326.879 500.633 327.818 504.966 327.818C507.784 327.818 510.33 327.424 512.602 326.636C514.905 325.818 516.89 324.606 518.557 323C520.223 321.364 521.511 319.333 522.42 316.909L532.784 319.818C531.693 323.333 529.86 326.424 527.284 329.091C524.708 331.727 521.527 333.788 517.739 335.273C513.951 336.727 509.693 337.455 504.966 337.455ZM582.557 252.909V242.909H652.375V252.909H623.102V336H611.83V252.909H582.557ZM661.068 336V266.182H671.432V276.727H672.159C673.432 273.273 675.735 270.47 679.068 268.318C682.402 266.167 686.159 265.091 690.341 265.091C691.129 265.091 692.114 265.106 693.295 265.136C694.477 265.167 695.371 265.212 695.977 265.273V276.182C695.614 276.091 694.78 275.955 693.477 275.773C692.205 275.561 690.856 275.455 689.432 275.455C686.038 275.455 683.008 276.167 680.341 277.591C677.705 278.985 675.614 280.924 674.068 283.409C672.553 285.864 671.795 288.667 671.795 291.818V336H661.068ZM729.239 337.636C724.814 337.636 720.799 336.803 717.193 335.136C713.587 333.439 710.723 331 708.602 327.818C706.481 324.606 705.42 320.727 705.42 316.182C705.42 312.182 706.208 308.939 707.784 306.455C709.36 303.939 711.466 301.97 714.102 300.545C716.739 299.121 719.648 298.061 722.83 297.364C726.042 296.636 729.269 296.061 732.511 295.636C736.754 295.091 740.193 294.682 742.83 294.409C745.496 294.106 747.436 293.606 748.648 292.909C749.89 292.212 750.511 291 750.511 289.273V288.909C750.511 284.424 749.284 280.939 746.83 278.455C744.405 275.97 740.723 274.727 735.784 274.727C730.663 274.727 726.648 275.848 723.739 278.091C720.83 280.333 718.784 282.727 717.602 285.273L707.42 281.636C709.239 277.394 711.663 274.091 714.693 271.727C717.754 269.333 721.087 267.667 724.693 266.727C728.33 265.758 731.905 265.273 735.42 265.273C737.663 265.273 740.239 265.545 743.148 266.091C746.087 266.606 748.92 267.682 751.648 269.318C754.405 270.955 756.693 273.424 758.511 276.727C760.33 280.03 761.239 284.455 761.239 290V336H750.511V326.545H749.966C749.239 328.061 748.027 329.682 746.33 331.409C744.633 333.136 742.375 334.606 739.557 335.818C736.739 337.03 733.299 337.636 729.239 337.636ZM730.875 328C735.117 328 738.693 327.167 741.602 325.5C744.542 323.833 746.754 321.682 748.239 319.045C749.754 316.409 750.511 313.636 750.511 310.727V300.909C750.057 301.455 749.057 301.955 747.511 302.409C745.996 302.833 744.239 303.212 742.239 303.545C740.269 303.848 738.345 304.121 736.466 304.364C734.617 304.576 733.117 304.758 731.966 304.909C729.178 305.273 726.572 305.864 724.148 306.682C721.754 307.47 719.814 308.667 718.33 310.273C716.875 311.848 716.148 314 716.148 316.727C716.148 320.455 717.527 323.273 720.284 325.182C723.072 327.061 726.602 328 730.875 328ZM809.182 337.455C802.636 337.455 797 335.909 792.273 332.818C787.545 329.727 783.909 325.47 781.364 320.045C778.818 314.621 777.545 308.424 777.545 301.455C777.545 294.364 778.848 288.106 781.455 282.682C784.091 277.227 787.758 272.97 792.455 269.909C797.182 266.818 802.697 265.273 809 265.273C813.909 265.273 818.333 266.182 822.273 268C826.212 269.818 829.439 272.364 831.955 275.636C834.47 278.909 836.03 282.727 836.636 287.091H825.909C825.091 283.909 823.273 281.091 820.455 278.636C817.667 276.152 813.909 274.909 809.182 274.909C805 274.909 801.333 276 798.182 278.182C795.061 280.333 792.621 283.379 790.864 287.318C789.136 291.227 788.273 295.818 788.273 301.091C788.273 306.485 789.121 311.182 790.818 315.182C792.545 319.182 794.97 322.288 798.091 324.5C801.242 326.712 804.939 327.818 809.182 327.818C811.97 327.818 814.5 327.333 816.773 326.364C819.045 325.394 820.97 324 822.545 322.182C824.121 320.364 825.242 318.182 825.909 315.636H836.636C836.03 319.758 834.53 323.47 832.136 326.773C829.773 330.045 826.636 332.652 822.727 334.591C818.848 336.5 814.333 337.455 809.182 337.455ZM862.318 310.545L862.136 297.273H864.318L894.864 266.182H908.136L875.591 299.091H874.682L862.318 310.545ZM852.318 336V242.909H863.045V336H852.318ZM896.682 336L869.409 301.455L877.045 294L910.318 336H896.682ZM948.341 337.455C941.614 337.455 935.811 335.97 930.932 333C926.083 330 922.341 325.818 919.705 320.455C917.098 315.061 915.795 308.788 915.795 301.636C915.795 294.485 917.098 288.182 919.705 282.727C922.341 277.242 926.008 272.97 930.705 269.909C935.432 266.818 940.947 265.273 947.25 265.273C950.886 265.273 954.477 265.879 958.023 267.091C961.568 268.303 964.795 270.273 967.705 273C970.614 275.697 972.932 279.273 974.659 283.727C976.386 288.182 977.25 293.667 977.25 300.182V304.727H923.432V295.455H966.341C966.341 291.515 965.553 288 963.977 284.909C962.432 281.818 960.22 279.379 957.341 277.591C954.492 275.803 951.129 274.909 947.25 274.909C942.977 274.909 939.28 275.97 936.159 278.091C933.068 280.182 930.689 282.909 929.023 286.273C927.356 289.636 926.523 293.242 926.523 297.091V303.273C926.523 308.545 927.432 313.015 929.25 316.682C931.098 320.318 933.659 323.091 936.932 325C940.205 326.879 944.008 327.818 948.341 327.818C951.159 327.818 953.705 327.424 955.977 326.636C958.28 325.818 960.265 324.606 961.932 323C963.598 321.364 964.886 319.333 965.795 316.909L976.159 319.818C975.068 323.333 973.235 326.424 970.659 329.091C968.083 331.727 964.902 333.788 961.114 335.273C957.326 336.727 953.068 337.455 948.341 337.455ZM993.568 336V266.182H1003.93V276.727H1004.66C1005.93 273.273 1008.23 270.47 1011.57 268.318C1014.9 266.167 1018.66 265.091 1022.84 265.091C1023.63 265.091 1024.61 265.106 1025.8 265.136C1026.98 265.167 1027.87 265.212 1028.48 265.273V276.182C1028.11 276.091 1027.28 275.955 1025.98 275.773C1024.7 275.561 1023.36 275.455 1021.93 275.455C1018.54 275.455 1015.51 276.167 1012.84 277.591C1010.2 278.985 1008.11 280.924 1006.57 283.409C1005.05 285.864 1004.3 288.667 1004.3 291.818V336H993.568Z" fill="black"/>
<path d="M37.2727 336H34.2727V339H37.2727V336ZM37.2727 242.909V239.909H34.2727V242.909H37.2727ZM93.4545 242.909H96.4545V239.909H93.4545V242.909ZM93.4545 252.909V255.909H96.4545V252.909H93.4545ZM48.5455 252.909V249.909H45.5455V252.909H48.5455ZM48.5455 284.364H45.5455V287.364H48.5455V284.364ZM90.5455 284.364H93.5455V281.364H90.5455V284.364ZM90.5455 294.364V297.364H93.5455V294.364H90.5455ZM48.5455 294.364V291.364H45.5455V294.364H48.5455ZM48.5455 326H45.5455V329H48.5455V326ZM94.1818 326H97.1818V323H94.1818V326ZM94.1818 336V339H97.1818V336H94.1818ZM40.2727 336V242.909H34.2727V336H40.2727ZM37.2727 245.909H93.4545V239.909H37.2727V245.909ZM90.4545 242.909V252.909H96.4545V242.909H90.4545ZM93.4545 249.909H48.5455V255.909H93.4545V249.909ZM45.5455 252.909V284.364H51.5455V252.909H45.5455ZM48.5455 287.364H90.5455V281.364H48.5455V287.364ZM87.5455 284.364V294.364H93.5455V284.364H87.5455ZM90.5455 291.364H48.5455V297.364H90.5455V291.364ZM45.5455 294.364V326H51.5455V294.364H45.5455ZM48.5455 329H94.1818V323H48.5455V329ZM91.1818 326V336H97.1818V326H91.1818ZM94.1818 333H37.2727V339H94.1818V333ZM120.318 266.182L122.907 264.665L122.037 263.182H120.318V266.182ZM137.045 294.727L134.457 296.244L137.045 300.661L139.634 296.244L137.045 294.727ZM153.773 266.182V263.182H152.054L151.184 264.665L153.773 266.182ZM166.136 266.182L168.656 267.809L171.645 263.182H166.136V266.182ZM143.591 301.091L141.071 299.463L140.02 301.091L141.071 302.718L143.591 301.091ZM166.136 336V339H171.645L168.656 334.372L166.136 336ZM153.773 336L151.22 337.576L152.099 339H153.773V336ZM137.045 308.909L139.598 307.333L137.045 303.199L134.493 307.333L137.045 308.909ZM120.318 336V339H121.992L122.871 337.576L120.318 336ZM107.955 336L105.422 334.391L102.494 339H107.955V336ZM130.136 301.091L132.668 302.7L133.691 301.091L132.668 299.482L130.136 301.091ZM107.955 266.182V263.182H102.494L105.422 267.791L107.955 266.182ZM117.73 267.699L134.457 296.244L139.634 293.211L122.907 264.665L117.73 267.699ZM139.634 296.244L156.361 267.699L151.184 264.665L134.457 293.211L139.634 296.244ZM153.773 269.182H166.136V263.182H153.773V269.182ZM163.616 264.554L141.071 299.463L146.111 302.718L168.656 267.809L163.616 264.554ZM141.071 302.718L163.616 337.628L168.656 334.372L146.111 299.463L141.071 302.718ZM166.136 333H153.773V339H166.136V333ZM156.325 334.424L139.598 307.333L134.493 310.485L151.22 337.576L156.325 334.424ZM134.493 307.333L117.766 334.424L122.871 337.576L139.598 310.485L134.493 307.333ZM120.318 333H107.955V339H120.318V333ZM110.487 337.609L132.668 302.7L127.604 299.482L105.422 334.391L110.487 337.609ZM132.668 299.482L110.487 264.573L105.422 267.791L127.604 302.7L132.668 299.482ZM107.955 269.182H120.318V263.182H107.955V269.182ZM181.443 362.182H178.443V365.182H181.443V362.182ZM181.443 266.182V263.182H178.443V266.182H181.443ZM191.807 266.182H194.807V263.182H191.807V266.182ZM191.807 277.273H188.807V280.273H191.807V277.273ZM193.08 277.273V280.273H194.708L195.595 278.908L193.08 277.273ZM196.352 272.636L193.948 270.842L193.943 270.849L196.352 272.636ZM202.443 267.545L203.915 270.159L203.925 270.154L202.443 267.545ZM228.807 269.682L230.451 267.173L230.451 267.173L228.807 269.682ZM239.307 282.182L242.026 280.914L242.026 280.914L239.307 282.182ZM239.307 320.5L242.026 321.768L242.028 321.762L239.307 320.5ZM228.852 333.045L230.505 335.549L230.51 335.546L230.516 335.542L228.852 333.045ZM202.67 335.227L201.201 337.843L201.212 337.849L201.224 337.855L202.67 335.227ZM196.443 330.091L194.043 331.891L194.05 331.9L194.057 331.909L196.443 330.091ZM193.08 325.273L195.63 323.694L194.751 322.273H193.08V325.273ZM192.17 325.273V322.273H189.17V325.273H192.17ZM192.17 362.182V365.182H195.17V362.182H192.17ZM194.307 315.045L191.506 316.12L191.508 316.127L194.307 315.045ZM201.08 324.455L199.256 326.837L199.264 326.843L199.272 326.849L201.08 324.455ZM223.216 324.273L225.073 326.629L225.076 326.627L223.216 324.273ZM230.034 314.636L227.23 313.569L227.226 313.581L230.034 314.636ZM230.08 287.818L227.27 288.869L227.275 288.882L227.28 288.895L230.08 287.818ZM223.307 278.409L221.465 280.777L221.478 280.787L221.492 280.798L223.307 278.409ZM200.989 278.227L202.765 280.645L202.773 280.639L202.781 280.633L200.989 278.227ZM194.261 287.409L197.059 288.493L197.061 288.486L194.261 287.409ZM184.443 362.182V266.182H178.443V362.182H184.443ZM181.443 269.182H191.807V263.182H181.443V269.182ZM188.807 266.182V277.273H194.807V266.182H188.807ZM191.807 280.273H193.08V274.273H191.807V280.273ZM195.595 278.908C196.335 277.769 197.385 276.279 198.762 274.424L193.943 270.849C192.532 272.751 191.4 274.352 190.564 275.638L195.595 278.908ZM198.757 274.43C199.873 272.934 201.549 271.492 203.915 270.159L200.971 264.932C198.065 266.568 195.68 268.52 193.948 270.842L198.757 274.43ZM203.925 270.154C205.974 268.99 209.003 268.273 213.261 268.273V262.273C208.429 262.273 204.246 263.071 200.961 264.937L203.925 270.154ZM213.261 268.273C218.614 268.273 223.213 269.602 227.162 272.191L230.451 267.173C225.431 263.882 219.666 262.273 213.261 262.273V268.273ZM227.162 272.191C231.13 274.792 234.282 278.504 236.588 283.45L242.026 280.914C239.302 275.072 235.453 270.451 230.451 267.173L227.162 272.191ZM236.588 283.45C238.88 288.365 240.08 294.278 240.08 301.273H246.08C246.08 293.601 244.764 286.786 242.026 280.914L236.588 283.45ZM240.08 301.273C240.08 308.331 238.879 314.291 236.585 319.238L242.028 321.762C244.765 315.86 246.08 309.002 246.08 301.273H240.08ZM236.588 319.232C234.278 324.185 231.135 327.918 227.188 330.549L230.516 335.542C235.478 332.234 239.305 327.603 242.026 321.768L236.588 319.232ZM227.2 330.541C223.28 333.128 218.729 334.455 213.443 334.455V340.455C219.794 340.455 225.516 338.842 230.505 335.549L227.2 330.541ZM213.443 334.455C209.249 334.455 206.214 333.754 204.117 332.599L201.224 337.855C204.52 339.67 208.668 340.455 213.443 340.455V334.455ZM204.14 332.612C201.701 331.242 199.975 329.777 198.829 328.273L194.057 331.909C195.82 334.223 198.246 336.183 201.201 337.843L204.14 332.612ZM198.843 328.291C197.414 326.385 196.352 324.859 195.63 323.694L190.529 326.852C191.383 328.232 192.563 329.918 194.043 331.891L198.843 328.291ZM193.08 322.273H192.17V328.273H193.08V322.273ZM189.17 325.273V362.182H195.17V325.273H189.17ZM192.17 359.182H181.443V365.182H192.17V359.182ZM188.989 301.091C188.989 306.652 189.803 311.68 191.506 316.12L197.108 313.971C195.72 310.351 194.989 306.075 194.989 301.091H188.989ZM191.508 316.127C193.223 320.565 195.787 324.182 199.256 326.837L202.903 322.072C200.433 320.182 198.481 317.526 197.105 313.964L191.508 316.127ZM199.272 326.849C202.841 329.544 207.139 330.818 211.989 330.818V324.818C208.232 324.818 205.258 323.85 202.887 322.06L199.272 326.849ZM211.989 330.818C217.025 330.818 221.455 329.48 225.073 326.629L221.359 321.916C218.977 323.793 215.922 324.818 211.989 324.818V330.818ZM225.076 326.627C228.582 323.857 231.158 320.173 232.842 315.692L227.226 313.581C225.88 317.16 223.91 319.901 221.356 321.919L225.076 326.627ZM232.838 315.703C234.53 311.257 235.352 306.373 235.352 301.091H229.352C229.352 305.748 228.629 309.895 227.23 313.569L232.838 315.703ZM235.352 301.091C235.352 295.873 234.547 291.075 232.88 286.741L227.28 288.895C228.643 292.44 229.352 296.491 229.352 301.091H235.352ZM232.889 286.767C231.229 282.329 228.654 278.705 225.122 276.021L221.492 280.798C224.021 282.72 225.96 285.368 227.27 288.869L232.889 286.767ZM225.149 276.041C221.524 273.222 217.066 271.909 211.989 271.909V277.909C216.002 277.909 219.089 278.929 221.465 280.777L225.149 276.041ZM211.989 271.909C207.098 271.909 202.772 273.158 199.197 275.821L202.781 280.633C205.145 278.872 208.152 277.909 211.989 277.909V271.909ZM199.212 275.81C195.716 278.379 193.152 281.937 191.461 286.332L197.061 288.486C198.401 285.002 200.322 282.44 202.765 280.645L199.212 275.81ZM191.464 286.325C189.787 290.652 188.989 295.595 188.989 301.091H194.989C194.989 296.163 195.706 291.984 197.059 288.493L191.464 286.325ZM271.307 333L269.728 335.551L269.738 335.557L269.747 335.563L271.307 333ZM260.08 320.455L257.378 321.76L257.383 321.769L257.387 321.778L260.08 320.455ZM260.08 282.727L257.376 281.428L257.373 281.434L260.08 282.727ZM271.08 269.909L272.717 272.423L272.721 272.42L271.08 269.909ZM298.398 267.091L299.368 264.252L299.368 264.252L298.398 267.091ZM308.08 273L306.028 275.189L306.034 275.194L306.04 275.2L308.08 273ZM315.034 283.727L317.831 282.643L317.831 282.643L315.034 283.727ZM317.625 304.727V307.727H320.625V304.727H317.625ZM263.807 304.727H260.807V307.727H263.807V304.727ZM263.807 295.455V292.455H260.807V295.455H263.807ZM306.716 295.455V298.455H309.716V295.455H306.716ZM304.352 284.909L301.669 286.251L301.674 286.261L301.68 286.272L304.352 284.909ZM297.716 277.591L296.121 280.132L296.127 280.136L296.133 280.139L297.716 277.591ZM276.534 278.091L278.215 280.576L278.22 280.572L276.534 278.091ZM269.398 286.273L266.71 284.941L266.71 284.941L269.398 286.273ZM269.625 316.682L266.937 318.015L266.944 318.028L266.951 318.041L269.625 316.682ZM277.307 325L275.795 327.591L275.804 327.597L275.813 327.602L277.307 325ZM296.352 326.636L297.335 329.471L297.346 329.467L297.357 329.463L296.352 326.636ZM302.307 323L304.388 325.16L304.399 325.151L304.409 325.141L302.307 323ZM306.17 316.909L306.981 314.021L304.329 313.276L303.361 315.856L306.17 316.909ZM316.534 319.818L319.399 320.707L320.313 317.763L317.345 316.93L316.534 319.818ZM311.034 329.091L313.18 331.187L313.186 331.181L313.192 331.175L311.034 329.091ZM301.489 335.273L302.564 338.073L302.574 338.07L302.584 338.066L301.489 335.273ZM288.716 334.455C282.44 334.455 277.198 333.074 272.867 330.437L269.747 335.563C275.174 338.866 281.537 340.455 288.716 340.455V334.455ZM272.885 330.449C268.54 327.76 265.172 324.015 262.772 319.131L257.387 321.778C260.26 327.622 264.377 332.24 269.728 335.551L272.885 330.449ZM262.781 319.149C260.406 314.234 259.17 308.423 259.17 301.636H253.17C253.17 309.153 254.541 315.887 257.378 321.76L262.781 319.149ZM259.17 301.636C259.17 294.851 260.406 289.004 262.786 284.021L257.373 281.434C254.541 287.36 253.17 294.118 253.17 301.636H259.17ZM262.783 284.027C265.203 278.993 268.519 275.158 272.717 272.423L269.442 267.396C264.246 270.781 260.229 275.492 257.376 281.428L262.783 284.027ZM272.721 272.42C276.905 269.684 281.835 268.273 287.625 268.273V262.273C280.809 262.273 274.709 263.952 269.438 267.398L272.721 272.42ZM287.625 268.273C290.921 268.273 294.185 268.821 297.427 269.93L299.368 264.252C295.52 262.937 291.602 262.273 287.625 262.273V268.273ZM297.427 269.93C300.545 270.995 303.409 272.733 306.028 275.189L310.131 270.811C306.932 267.812 303.342 265.611 299.368 264.252L297.427 269.93ZM306.04 275.2C308.554 277.531 310.641 280.696 312.237 284.812L317.831 282.643C315.973 277.849 313.423 273.863 310.119 270.8L306.04 275.2ZM312.237 284.812C313.791 288.82 314.625 293.912 314.625 300.182H320.625C320.625 293.422 319.732 287.544 317.831 282.643L312.237 284.812ZM314.625 300.182V304.727H320.625V300.182H314.625ZM317.625 301.727H263.807V307.727H317.625V301.727ZM266.807 304.727V295.455H260.807V304.727H266.807ZM263.807 298.455H306.716V292.455H263.807V298.455ZM309.716 295.455C309.716 291.106 308.843 287.113 307.025 283.547L301.68 286.272C303.013 288.887 303.716 291.924 303.716 295.455H309.716ZM307.036 283.567C305.247 279.991 302.659 277.129 299.299 275.042L296.133 280.139C298.531 281.628 300.367 283.646 301.669 286.251L307.036 283.567ZM299.311 275.05C295.915 272.918 291.98 271.909 287.625 271.909V277.909C291.028 277.909 293.82 278.688 296.121 280.132L299.311 275.05ZM287.625 271.909C282.833 271.909 278.53 273.107 274.848 275.61L278.22 280.572C280.78 278.832 283.871 277.909 287.625 277.909V271.909ZM274.853 275.606C271.33 277.99 268.605 281.115 266.71 284.941L272.086 287.605C273.524 284.703 275.557 282.374 278.215 280.576L274.853 275.606ZM266.71 284.941C264.833 288.729 263.898 292.792 263.898 297.091H269.898C269.898 293.692 270.63 290.544 272.086 287.605L266.71 284.941ZM263.898 297.091V303.273H269.898V297.091H263.898ZM263.898 303.273C263.898 308.879 264.863 313.832 266.937 318.015L272.313 315.349C270.75 312.198 269.898 308.212 269.898 303.273H263.898ZM266.951 318.041C269.039 322.15 271.986 325.369 275.795 327.591L278.818 322.409C276.082 320.812 273.908 318.486 272.299 315.322L266.951 318.041ZM275.813 327.602C279.604 329.778 283.937 330.818 288.716 330.818V324.818C284.828 324.818 281.555 323.979 278.8 322.398L275.813 327.602ZM288.716 330.818C291.812 330.818 294.697 330.385 297.335 329.471L295.37 323.802C293.462 324.463 291.256 324.818 288.716 324.818V330.818ZM297.357 329.463C300.039 328.51 302.397 327.079 304.388 325.16L300.225 320.84C298.883 322.133 297.271 323.126 295.348 323.809L297.357 329.463ZM304.409 325.141C306.42 323.166 307.934 320.752 308.979 317.962L303.361 315.856C302.589 317.915 301.527 319.561 300.205 320.859L304.409 325.141ZM305.36 319.797L315.723 322.707L317.345 316.93L306.981 314.021L305.36 319.797ZM313.669 318.929C312.718 321.993 311.129 324.675 308.876 327.007L313.192 331.175C316.091 328.174 318.168 324.674 319.399 320.707L313.669 318.929ZM308.888 326.994C306.639 329.296 303.827 331.134 300.394 332.48L302.584 338.066C306.726 336.442 310.278 334.158 313.18 331.187L308.888 326.994ZM300.413 332.472C297.02 333.775 293.135 334.455 288.716 334.455V340.455C293.751 340.455 298.381 339.68 302.564 338.073L300.413 332.472ZM344.67 336V339H347.67V336H344.67ZM333.943 336H330.943V339H333.943V336ZM333.943 266.182V263.182H330.943V266.182H333.943ZM344.307 266.182H347.307V263.182H344.307V266.182ZM344.307 277.091H341.307V280.091H344.307V277.091ZM345.216 277.091V280.091H347.135L347.94 278.348L345.216 277.091ZM352.67 268.545L354.297 271.066L354.305 271.061L354.313 271.056L352.67 268.545ZM377.989 268.182L376.549 270.814L376.558 270.819L376.566 270.823L377.989 268.182ZM386.261 276.909L383.582 278.259L383.586 278.267L386.261 276.909ZM389.216 336V339H392.216V336H389.216ZM378.489 336H375.489V339H378.489V336ZM374.216 279.545L372.01 281.578L372.015 281.584L372.02 281.589L374.216 279.545ZM353.307 277.136L351.86 274.508L351.854 274.512L351.847 274.515L353.307 277.136ZM346.989 283.636L344.352 282.206L344.352 282.206L346.989 283.636ZM341.67 294V336H347.67V294H341.67ZM344.67 333H333.943V339H344.67V333ZM336.943 336V266.182H330.943V336H336.943ZM333.943 269.182H344.307V263.182H333.943V269.182ZM341.307 266.182V277.091H347.307V266.182H341.307ZM344.307 280.091H345.216V274.091H344.307V280.091ZM347.94 278.348C349.334 275.328 351.434 272.914 354.297 271.066L351.044 266.025C347.24 268.48 344.371 271.763 342.492 275.834L347.94 278.348ZM354.313 271.056C357.024 269.282 360.705 268.273 365.58 268.273V262.273C359.908 262.273 354.984 263.446 351.027 266.035L354.313 271.056ZM365.58 268.273C369.889 268.273 373.515 269.154 376.549 270.814L379.428 265.55C375.372 263.331 370.724 262.273 365.58 262.273V268.273ZM376.566 270.823C379.523 272.415 381.864 274.849 383.582 278.259L388.94 275.559C386.719 271.151 383.545 267.767 379.411 265.54L376.566 270.823ZM383.586 278.267C385.279 281.6 386.216 286.005 386.216 291.636H392.216C392.216 285.389 391.183 279.975 388.936 275.551L383.586 278.267ZM386.216 291.636V336H392.216V291.636H386.216ZM389.216 333H378.489V339H389.216V333ZM381.489 336V292.364H375.489V336H381.489ZM381.489 292.364C381.489 286.363 379.922 281.273 376.412 277.502L372.02 281.589C374.207 283.939 375.489 287.394 375.489 292.364H381.489ZM376.422 277.512C372.902 273.693 368.13 271.909 362.489 271.909V277.909C366.787 277.909 369.833 279.217 372.01 281.578L376.422 277.512ZM362.489 271.909C358.616 271.909 355.048 272.753 351.86 274.508L354.754 279.764C356.959 278.55 359.512 277.909 362.489 277.909V271.909ZM351.847 274.515C348.652 276.295 346.151 278.889 344.352 282.206L349.626 285.067C350.917 282.687 352.628 280.948 354.766 279.757L351.847 274.515ZM344.352 282.206C342.515 285.591 341.67 289.564 341.67 294H347.67C347.67 290.315 348.371 287.379 349.626 285.067L344.352 282.206ZM458.273 281.818L459.09 284.705L462.118 283.848L461.117 280.864L458.273 281.818ZM448.636 284.545L445.83 285.605L446.802 288.182L449.453 287.432L448.636 284.545ZM445.955 279.864L443.549 281.656L443.569 281.683L443.589 281.709L445.955 279.864ZM441.227 276.045L442.569 273.362L442.569 273.362L441.227 276.045ZM422.864 277.5L424.564 279.971L424.57 279.968L422.864 277.5ZM421.545 291.227L419.676 293.573L419.676 293.573L421.545 291.227ZM430.636 295.091L429.909 298.001L429.921 298.004L430.636 295.091ZM441 297.636L440.284 300.55L440.292 300.552L441 297.636ZM454.955 304.591L452.813 306.691L452.818 306.697L452.823 306.702L454.955 304.591ZM456.091 327.273L453.669 325.503L453.663 325.51L453.658 325.518L456.091 327.273ZM414.591 332.818L416.248 330.317L416.248 330.317L414.591 332.818ZM405.727 319.273L405 316.362L402.2 317.062L402.791 319.887L405.727 319.273ZM415.909 316.727L418.814 315.978L418.07 313.095L415.181 313.817L415.909 316.727ZM421.409 325.182L419.694 327.643L419.701 327.648L419.707 327.652L421.409 325.182ZM444 324.818L445.756 327.251L445.76 327.248L444 324.818ZM445.909 311L443.807 313.14L443.817 313.15L443.827 313.16L445.909 311ZM438.091 307.273L437.406 310.194L437.411 310.195L438.091 307.273ZM426.455 304.545L425.763 307.465L425.77 307.466L426.455 304.545ZM412.364 297.5L410.161 299.537L410.171 299.547L410.181 299.558L412.364 297.5ZM411.227 275L408.816 273.215L408.81 273.223L408.804 273.231L411.227 275ZM420.364 267.864L419.143 265.123L419.135 265.127L420.364 267.864ZM449.818 269.818L447.989 272.196L447.998 272.203L449.818 269.818ZM457.456 278.932L447.819 281.659L449.453 287.432L459.09 284.705L457.456 278.932ZM451.443 283.486C450.719 281.566 449.666 279.744 448.32 278.019L443.589 281.709C444.607 283.014 445.342 284.313 445.83 285.605L451.443 283.486ZM448.36 278.071C446.887 276.094 444.921 274.538 442.569 273.362L439.886 278.729C441.533 279.553 442.719 280.543 443.549 281.656L448.36 278.071ZM442.569 273.362C440.021 272.088 436.959 271.545 433.545 271.545V277.545C436.374 277.545 438.434 278.003 439.886 278.729L442.569 273.362ZM433.545 271.545C428.807 271.545 424.614 272.642 421.157 275.032L424.57 279.968C426.81 278.418 429.738 277.545 433.545 277.545V271.545ZM421.163 275.029C417.664 277.437 415.636 280.771 415.636 284.909H421.636C421.636 283.047 422.427 281.442 424.564 279.971L421.163 275.029ZM415.636 284.909C415.636 288.41 416.963 291.411 419.676 293.573L423.415 288.881C422.25 287.952 421.636 286.741 421.636 284.909H415.636ZM419.676 293.573C422.11 295.513 425.627 296.931 429.909 298.001L431.364 292.18C427.403 291.19 424.86 290.033 423.415 288.881L419.676 293.573ZM429.921 298.004L440.284 300.55L441.716 294.723L431.352 292.177L429.921 298.004ZM440.292 300.552C446.23 301.993 450.288 304.116 452.813 306.691L457.097 302.49C453.5 298.823 448.255 296.31 441.708 294.721L440.292 300.552ZM452.823 306.702C455.258 309.161 456.545 312.352 456.545 316.545H462.545C462.545 310.981 460.773 306.203 457.086 302.48L452.823 306.702ZM456.545 316.545C456.545 319.926 455.586 322.878 453.669 325.503L458.513 329.043C461.201 325.364 462.545 321.165 462.545 316.545H456.545ZM453.658 325.518C451.74 328.177 449.008 330.35 445.327 331.986L447.764 337.469C452.265 335.468 455.896 332.672 458.524 329.027L453.658 325.518ZM445.327 331.986C441.692 333.601 437.364 334.455 432.273 334.455V340.455C438.03 340.455 443.217 339.489 447.764 337.469L445.327 331.986ZM432.273 334.455C425.581 334.455 420.305 333.004 416.248 330.317L412.934 335.319C418.21 338.814 424.722 340.455 432.273 340.455V334.455ZM416.248 330.317C412.298 327.701 409.759 323.897 408.664 318.658L402.791 319.887C404.18 326.528 407.551 331.754 412.934 335.319L416.248 330.317ZM406.455 322.183L416.637 319.638L415.181 313.817L405 316.362L406.455 322.183ZM413.004 317.477C414.119 321.797 416.306 325.283 419.694 327.643L423.124 322.72C421.118 321.323 419.638 319.173 418.814 315.978L413.004 317.477ZM419.707 327.652C423.075 329.972 427.285 331 432.091 331V325C428.109 325 425.198 324.149 423.111 322.711L419.707 327.652ZM432.091 331C437.488 331 442.144 329.857 445.756 327.251L442.244 322.385C439.978 324.021 436.694 325 432.091 325V331ZM445.76 327.248C449.314 324.673 451.455 321.27 451.455 317.091H445.455C445.455 318.912 444.626 320.66 442.24 322.389L445.76 327.248ZM451.455 317.091C451.455 313.878 450.293 311.06 447.991 308.84L443.827 313.16C444.919 314.213 445.455 315.455 445.455 317.091H451.455ZM448.011 308.86C445.768 306.656 442.566 305.234 438.771 304.351L437.411 310.195C440.646 310.948 442.657 312.01 443.807 313.14L448.011 308.86ZM438.775 304.352L427.139 301.625L425.77 307.466L437.406 310.194L438.775 304.352ZM427.146 301.626C421.054 300.183 416.989 298.033 414.546 295.442L410.181 299.558C413.738 303.331 419.067 305.878 425.763 307.465L427.146 301.626ZM414.566 295.463C412.163 292.864 410.909 289.601 410.909 285.455H404.909C404.909 290.945 406.625 295.712 410.161 299.537L414.566 295.463ZM410.909 285.455C410.909 282.117 411.833 279.259 413.65 276.769L408.804 273.231C406.198 276.802 404.909 280.913 404.909 285.455H410.909ZM413.639 276.785C415.54 274.215 418.156 272.143 421.592 270.601L419.135 265.127C414.874 267.039 411.399 269.724 408.816 273.215L413.639 276.785ZM421.584 270.604C425.023 269.073 428.992 268.273 433.545 268.273V262.273C428.281 262.273 423.462 263.2 419.143 265.123L421.584 270.604ZM433.545 268.273C440.046 268.273 444.745 269.7 447.989 272.196L451.647 267.44C447.013 263.875 440.863 262.273 433.545 262.273V268.273ZM447.998 272.203C451.467 274.851 453.942 278.341 455.428 282.772L461.117 280.864C459.27 275.356 456.109 270.846 451.639 267.434L447.998 272.203ZM487.557 333L485.978 335.551L485.988 335.557L485.997 335.563L487.557 333ZM476.33 320.455L473.628 321.76L473.633 321.769L473.637 321.778L476.33 320.455ZM476.33 282.727L473.626 281.428L473.623 281.434L476.33 282.727ZM487.33 269.909L488.967 272.423L488.971 272.42L487.33 269.909ZM514.648 267.091L515.618 264.252L515.618 264.252L514.648 267.091ZM524.33 273L522.278 275.189L522.284 275.194L522.29 275.2L524.33 273ZM531.284 283.727L534.081 282.643L534.081 282.643L531.284 283.727ZM533.875 304.727V307.727H536.875V304.727H533.875ZM480.057 304.727H477.057V307.727H480.057V304.727ZM480.057 295.455V292.455H477.057V295.455H480.057ZM522.966 295.455V298.455H525.966V295.455H522.966ZM520.602 284.909L517.919 286.251L517.924 286.261L517.93 286.272L520.602 284.909ZM513.966 277.591L512.371 280.132L512.377 280.136L512.383 280.139L513.966 277.591ZM492.784 278.091L494.465 280.576L494.47 280.572L492.784 278.091ZM485.648 286.273L482.96 284.941L482.96 284.941L485.648 286.273ZM485.875 316.682L483.187 318.015L483.194 318.028L483.201 318.041L485.875 316.682ZM493.557 325L492.045 327.591L492.054 327.597L492.063 327.602L493.557 325ZM512.602 326.636L513.585 329.471L513.596 329.467L513.607 329.463L512.602 326.636ZM518.557 323L520.638 325.16L520.649 325.151L520.659 325.141L518.557 323ZM522.42 316.909L523.231 314.021L520.579 313.276L519.611 315.856L522.42 316.909ZM532.784 319.818L535.649 320.707L536.563 317.763L533.595 316.93L532.784 319.818ZM527.284 329.091L529.43 331.187L529.436 331.181L529.442 331.175L527.284 329.091ZM517.739 335.273L518.814 338.073L518.824 338.07L518.834 338.066L517.739 335.273ZM504.966 334.455C498.69 334.455 493.448 333.074 489.117 330.437L485.997 335.563C491.424 338.866 497.787 340.455 504.966 340.455V334.455ZM489.135 330.449C484.79 327.76 481.422 324.015 479.022 319.131L473.637 321.778C476.51 327.622 480.627 332.24 485.978 335.551L489.135 330.449ZM479.031 319.149C476.656 314.234 475.42 308.423 475.42 301.636H469.42C469.42 309.153 470.791 315.887 473.628 321.76L479.031 319.149ZM475.42 301.636C475.42 294.851 476.656 289.004 479.036 284.021L473.623 281.434C470.791 287.36 469.42 294.118 469.42 301.636H475.42ZM479.033 284.027C481.453 278.993 484.769 275.158 488.967 272.423L485.692 267.396C480.496 270.781 476.479 275.492 473.626 281.428L479.033 284.027ZM488.971 272.42C493.155 269.684 498.085 268.273 503.875 268.273V262.273C497.059 262.273 490.959 263.952 485.688 267.398L488.971 272.42ZM503.875 268.273C507.171 268.273 510.435 268.821 513.677 269.93L515.618 264.252C511.77 262.937 507.852 262.273 503.875 262.273V268.273ZM513.677 269.93C516.795 270.995 519.659 272.733 522.278 275.189L526.381 270.811C523.182 267.812 519.592 265.611 515.618 264.252L513.677 269.93ZM522.29 275.2C524.804 277.531 526.891 280.696 528.487 284.812L534.081 282.643C532.223 277.849 529.673 273.863 526.369 270.8L522.29 275.2ZM528.487 284.812C530.041 288.82 530.875 293.912 530.875 300.182H536.875C536.875 293.422 535.982 287.544 534.081 282.643L528.487 284.812ZM530.875 300.182V304.727H536.875V300.182H530.875ZM533.875 301.727H480.057V307.727H533.875V301.727ZM483.057 304.727V295.455H477.057V304.727H483.057ZM480.057 298.455H522.966V292.455H480.057V298.455ZM525.966 295.455C525.966 291.106 525.093 287.113 523.275 283.547L517.93 286.272C519.263 288.887 519.966 291.924 519.966 295.455H525.966ZM523.286 283.567C521.497 279.991 518.909 277.129 515.549 275.042L512.383 280.139C514.781 281.628 516.617 283.646 517.919 286.251L523.286 283.567ZM515.561 275.05C512.165 272.918 508.23 271.909 503.875 271.909V277.909C507.278 277.909 510.07 278.688 512.371 280.132L515.561 275.05ZM503.875 271.909C499.083 271.909 494.78 273.107 491.098 275.61L494.47 280.572C497.03 278.832 500.121 277.909 503.875 277.909V271.909ZM491.103 275.606C487.58 277.99 484.855 281.115 482.96 284.941L488.336 287.605C489.774 284.703 491.807 282.374 494.465 280.576L491.103 275.606ZM482.96 284.941C481.083 288.729 480.148 292.792 480.148 297.091H486.148C486.148 293.692 486.88 290.544 488.336 287.605L482.96 284.941ZM480.148 297.091V303.273H486.148V297.091H480.148ZM480.148 303.273C480.148 308.879 481.113 313.832 483.187 318.015L488.563 315.349C487 312.198 486.148 308.212 486.148 303.273H480.148ZM483.201 318.041C485.289 322.15 488.236 325.369 492.045 327.591L495.068 322.409C492.332 320.812 490.158 318.486 488.549 315.322L483.201 318.041ZM492.063 327.602C495.854 329.778 500.187 330.818 504.966 330.818V324.818C501.078 324.818 497.805 323.979 495.05 322.398L492.063 327.602ZM504.966 330.818C508.062 330.818 510.947 330.385 513.585 329.471L511.62 323.802C509.712 324.463 507.506 324.818 504.966 324.818V330.818ZM513.607 329.463C516.289 328.51 518.647 327.079 520.638 325.16L516.475 320.84C515.133 322.133 513.521 323.126 511.598 323.809L513.607 329.463ZM520.659 325.141C522.67 323.166 524.184 320.752 525.229 317.962L519.611 315.856C518.839 317.915 517.777 319.561 516.455 320.859L520.659 325.141ZM521.61 319.797L531.973 322.707L533.595 316.93L523.231 314.021L521.61 319.797ZM529.919 318.929C528.968 321.993 527.379 324.675 525.126 327.007L529.442 331.175C532.341 328.174 534.418 324.674 535.649 320.707L529.919 318.929ZM525.138 326.994C522.889 329.296 520.077 331.134 516.644 332.48L518.834 338.066C522.976 336.442 526.528 334.158 529.43 331.187L525.138 326.994ZM516.663 332.472C513.27 333.775 509.385 334.455 504.966 334.455V340.455C510.001 340.455 514.631 339.68 518.814 338.073L516.663 332.472ZM582.557 252.909H579.557V255.909H582.557V252.909ZM582.557 242.909V239.909H579.557V242.909H582.557ZM652.375 242.909H655.375V239.909H652.375V242.909ZM652.375 252.909V255.909H655.375V252.909H652.375ZM623.102 252.909V249.909H620.102V252.909H623.102ZM623.102 336V339H626.102V336H623.102ZM611.83 336H608.83V339H611.83V336ZM611.83 252.909H614.83V249.909H611.83V252.909ZM585.557 252.909V242.909H579.557V252.909H585.557ZM582.557 245.909H652.375V239.909H582.557V245.909ZM649.375 242.909V252.909H655.375V242.909H649.375ZM652.375 249.909H623.102V255.909H652.375V249.909ZM620.102 252.909V336H626.102V252.909H620.102ZM623.102 333H611.83V339H623.102V333ZM614.83 336V252.909H608.83V336H614.83ZM611.83 249.909H582.557V255.909H611.83V249.909ZM661.068 336H658.068V339H661.068V336ZM661.068 266.182V263.182H658.068V266.182H661.068ZM671.432 266.182H674.432V263.182H671.432V266.182ZM671.432 276.727H668.432V279.727H671.432V276.727ZM672.159 276.727V279.727H674.251L674.974 277.764L672.159 276.727ZM679.068 268.318L677.441 265.798L677.441 265.798L679.068 268.318ZM695.977 265.273H698.977V262.558L696.276 262.288L695.977 265.273ZM695.977 276.182L695.25 279.092L698.977 280.024V276.182H695.977ZM693.477 275.773L692.984 278.732L693.023 278.738L693.063 278.744L693.477 275.773ZM680.341 277.591L681.743 280.243L681.754 280.237L680.341 277.591ZM674.068 283.409L671.521 281.825L671.515 281.833L674.068 283.409ZM671.795 336V339H674.795V336H671.795ZM664.068 336V266.182H658.068V336H664.068ZM661.068 269.182H671.432V263.182H661.068V269.182ZM668.432 266.182V276.727H674.432V266.182H668.432ZM671.432 279.727H672.159V273.727H671.432V279.727ZM674.974 277.764C676.004 274.968 677.863 272.667 680.695 270.839L677.441 265.798C673.607 268.273 670.859 271.577 669.344 275.69L674.974 277.764ZM680.695 270.839C683.517 269.017 686.703 268.091 690.341 268.091V262.091C685.615 262.091 681.286 263.316 677.441 265.798L680.695 270.839ZM690.341 268.091C691.094 268.091 692.051 268.105 693.219 268.135L693.372 262.137C692.176 262.107 691.164 262.091 690.341 262.091V268.091ZM693.219 268.135C694.381 268.165 695.186 268.209 695.679 268.258L696.276 262.288C695.556 262.216 694.573 262.168 693.372 262.137L693.219 268.135ZM692.977 265.273V276.182H698.977V265.273H692.977ZM696.705 273.271C696.155 273.134 695.15 272.977 693.892 272.802L693.063 278.744C694.411 278.932 695.072 279.048 695.25 279.092L696.705 273.271ZM693.97 272.814C692.519 272.572 691.005 272.455 689.432 272.455V278.455C690.708 278.455 691.89 278.55 692.984 278.732L693.97 272.814ZM689.432 272.455C685.606 272.455 682.08 273.261 678.928 274.945L681.754 280.237C683.935 279.072 686.47 278.455 689.432 278.455V272.455ZM678.939 274.939C675.842 276.576 673.352 278.88 671.521 281.825L676.616 284.993C677.875 282.969 679.567 281.394 681.743 280.243L678.939 274.939ZM671.515 281.833C669.681 284.805 668.795 288.163 668.795 291.818H674.795C674.795 289.17 675.425 286.922 676.621 284.985L671.515 281.833ZM668.795 291.818V336H674.795V291.818H668.795ZM671.795 333H661.068V339H671.795V333ZM717.193 335.136L715.916 337.851L715.925 337.855L715.935 337.86L717.193 335.136ZM708.602 327.818L706.099 329.471L706.106 329.482L708.602 327.818ZM707.784 306.455L710.318 308.061L710.322 308.054L710.326 308.047L707.784 306.455ZM722.83 297.364L723.471 300.294L723.482 300.292L723.492 300.29L722.83 297.364ZM732.511 295.636L732.129 292.661L732.122 292.662L732.511 295.636ZM742.83 294.409L743.138 297.393L743.153 297.392L743.168 297.39L742.83 294.409ZM748.648 292.909L747.18 290.293L747.166 290.3L747.152 290.308L748.648 292.909ZM746.83 278.455L744.682 280.55L744.689 280.556L744.695 280.563L746.83 278.455ZM723.739 278.091L725.57 280.467L725.57 280.467L723.739 278.091ZM717.602 285.273L716.593 288.098L719.171 289.018L720.323 286.536L717.602 285.273ZM707.42 281.636L704.663 280.455L703.406 283.388L706.411 284.462L707.42 281.636ZM714.693 271.727L716.538 274.093L716.541 274.09L714.693 271.727ZM724.693 266.727L725.449 269.63L725.458 269.628L725.466 269.626L724.693 266.727ZM743.148 266.091L742.595 269.04L742.612 269.043L742.63 269.046L743.148 266.091ZM751.648 269.318L750.104 271.891L750.11 271.894L750.117 271.898L751.648 269.318ZM758.511 276.727L755.883 278.174L755.883 278.174L758.511 276.727ZM761.239 336V339H764.239V336H761.239ZM750.511 336H747.511V339H750.511V336ZM750.511 326.545H753.511V323.545H750.511V326.545ZM749.966 326.545V323.545H748.078L747.261 325.247L749.966 326.545ZM746.33 331.409L748.47 333.512L748.47 333.512L746.33 331.409ZM739.557 335.818L738.371 333.062L738.371 333.062L739.557 335.818ZM741.602 325.5L740.123 322.89L740.111 322.897L741.602 325.5ZM748.239 319.045L745.638 317.551L745.631 317.562L745.625 317.573L748.239 319.045ZM750.511 300.909H753.511V292.623L748.207 298.989L750.511 300.909ZM747.511 302.409L748.32 305.298L748.339 305.293L748.358 305.287L747.511 302.409ZM742.239 303.545L742.695 306.511L742.713 306.508L742.732 306.505L742.239 303.545ZM736.466 304.364L736.808 307.344L736.829 307.342L736.85 307.339L736.466 304.364ZM731.966 304.909L732.354 307.884L732.357 307.883L731.966 304.909ZM724.148 306.682L725.086 309.531L725.096 309.528L725.107 309.524L724.148 306.682ZM718.33 310.273L716.127 308.236L716.125 308.238L718.33 310.273ZM720.284 325.182L718.576 327.648L718.592 327.659L718.608 327.67L720.284 325.182ZM729.239 334.636C725.199 334.636 721.621 333.878 718.452 332.413L715.935 337.86C719.978 339.728 724.43 340.636 729.239 340.636V334.636ZM718.471 332.422C715.337 330.947 712.903 328.862 711.098 326.154L706.106 329.482C708.543 333.138 711.837 335.932 715.916 337.851L718.471 332.422ZM711.106 326.165C709.363 323.527 708.42 320.248 708.42 316.182H702.42C702.42 321.207 703.599 325.686 706.099 329.471L711.106 326.165ZM708.42 316.182C708.42 312.553 709.138 309.922 710.318 308.061L705.251 304.848C703.279 307.957 702.42 311.811 702.42 316.182H708.42ZM710.326 308.047C711.624 305.976 713.344 304.365 715.528 303.185L712.676 297.906C709.588 299.574 707.096 301.903 705.242 304.862L710.326 308.047ZM715.528 303.185C717.898 301.905 720.54 300.936 723.471 300.294L722.188 294.433C718.756 295.185 715.58 296.338 712.676 297.906L715.528 303.185ZM723.492 300.29C726.614 299.583 729.751 299.023 732.901 298.611L732.122 292.662C728.787 293.098 725.469 293.69 722.167 294.438L723.492 300.29ZM732.894 298.612C737.125 298.068 740.537 297.662 743.138 297.393L742.521 291.425C739.85 291.701 736.383 292.114 732.129 292.661L732.894 298.612ZM743.168 297.39C745.937 297.075 748.381 296.523 750.143 295.51L747.152 290.308C746.49 290.689 745.056 291.137 742.491 291.428L743.168 297.39ZM750.115 295.526C752.52 294.176 753.511 291.812 753.511 289.273H747.511C747.511 289.785 747.419 290.025 747.376 290.109C747.347 290.165 747.311 290.219 747.18 290.293L750.115 295.526ZM753.511 289.273V288.909H747.511V289.273H753.511ZM753.511 288.909C753.511 283.869 752.118 279.54 748.964 276.346L744.695 280.563C746.45 282.339 747.511 284.979 747.511 288.909H753.511ZM748.977 276.36C745.785 273.088 741.186 271.727 735.784 271.727V277.727C740.261 277.727 743.026 278.851 744.682 280.55L748.977 276.36ZM735.784 271.727C730.256 271.727 725.513 272.935 721.907 275.715L725.57 280.467C727.782 278.762 731.069 277.727 735.784 277.727V271.727ZM721.907 275.715C718.73 278.164 716.319 280.913 714.881 284.009L720.323 286.536C721.249 284.541 722.929 282.503 725.57 280.467L721.907 275.715ZM718.611 282.447L708.429 278.811L706.411 284.462L716.593 288.098L718.611 282.447ZM710.178 282.818C711.837 278.948 713.98 276.088 716.538 274.093L712.848 269.362C709.346 272.094 706.641 275.84 704.663 280.455L710.178 282.818ZM716.541 274.09C719.293 271.938 722.257 270.462 725.449 269.63L723.937 263.824C719.917 264.871 716.215 266.729 712.845 269.364L716.541 274.09ZM725.466 269.626C728.868 268.719 732.184 268.273 735.42 268.273V262.273C731.627 262.273 727.791 262.796 723.92 263.829L725.466 269.626ZM735.42 268.273C737.429 268.273 739.814 268.518 742.595 269.04L743.701 263.142C740.663 262.573 737.896 262.273 735.42 262.273V268.273ZM742.63 269.046C745.184 269.493 747.672 270.431 750.104 271.891L753.191 266.746C750.169 264.933 746.991 263.719 743.666 263.136L742.63 269.046ZM750.117 271.898C752.339 273.217 754.277 275.257 755.883 278.174L761.14 275.281C759.109 271.592 756.472 268.692 753.179 266.738L750.117 271.898ZM755.883 278.174C757.369 280.874 758.239 284.739 758.239 290H764.239C764.239 284.17 763.29 279.187 761.14 275.281L755.883 278.174ZM758.239 290V336H764.239V290H758.239ZM761.239 333H750.511V339H761.239V333ZM753.511 336V326.545H747.511V336H753.511ZM750.511 323.545H749.966V329.545H750.511V323.545ZM747.261 325.247C746.725 326.365 745.748 327.72 744.19 329.307L748.47 333.512C750.305 331.644 751.753 329.756 752.67 327.844L747.261 325.247ZM744.19 329.307C742.828 330.693 740.924 331.965 738.371 333.062L740.742 338.574C743.826 337.248 746.438 335.58 748.47 333.512L744.19 329.307ZM738.371 333.062C736.028 334.07 733.017 334.636 729.239 334.636V340.636C733.582 340.636 737.449 339.99 740.742 338.574L738.371 333.062ZM730.875 331C735.504 331 739.625 330.09 743.094 328.103L740.111 322.897C737.761 324.243 734.731 325 730.875 325V331ZM743.082 328.11C746.439 326.206 749.07 323.683 750.853 320.518L745.625 317.573C744.438 319.68 742.644 321.46 740.123 322.89L743.082 328.11ZM750.84 320.54C752.604 317.471 753.511 314.185 753.511 310.727H747.511C747.511 313.088 746.904 315.348 745.638 317.551L750.84 320.54ZM753.511 310.727V300.909H747.511V310.727H753.511ZM748.207 298.989C748.353 298.813 748.398 298.85 748.079 299.01C747.79 299.154 747.335 299.334 746.665 299.531L748.358 305.287C749.234 305.03 750.051 304.732 750.762 304.376C751.443 304.036 752.215 303.55 752.816 302.83L748.207 298.989ZM746.702 299.52C745.316 299.908 743.668 300.266 741.745 300.586L742.732 306.505C744.81 306.158 746.677 305.758 748.32 305.298L746.702 299.52ZM741.782 300.58C739.836 300.88 737.935 301.149 736.082 301.388L736.85 307.339C738.754 307.093 740.702 306.817 742.695 306.511L741.782 300.58ZM736.124 301.383C734.267 301.596 732.749 301.78 731.575 301.935L732.357 307.883C733.486 307.735 734.967 307.555 736.808 307.344L736.124 301.383ZM731.578 301.934C728.615 302.321 725.815 302.953 723.188 303.839L725.107 309.524C727.328 308.775 729.741 308.225 732.354 307.884L731.578 301.934ZM723.21 303.832C720.406 304.755 718.007 306.203 716.127 308.236L720.532 312.309C721.622 311.131 723.101 310.185 725.086 309.531L723.21 303.832ZM716.125 308.238C714.031 310.506 713.148 313.458 713.148 316.727H719.148C719.148 314.542 719.719 313.191 720.534 312.308L716.125 308.238ZM713.148 316.727C713.148 321.311 714.91 325.11 718.576 327.648L721.992 322.715C720.143 321.436 719.148 319.598 719.148 316.727H713.148ZM718.608 327.67C722.01 329.962 726.166 331 730.875 331V325C727.038 325 724.134 324.159 721.961 322.694L718.608 327.67ZM792.273 332.818L790.631 335.329L790.631 335.329L792.273 332.818ZM781.455 282.682L778.753 281.376L778.75 281.383L781.455 282.682ZM792.455 269.909L794.092 272.423L794.096 272.42L792.455 269.909ZM831.955 275.636L834.333 273.808L834.333 273.808L831.955 275.636ZM836.636 287.091V290.091H840.082L839.608 286.678L836.636 287.091ZM825.909 287.091L823.004 287.838L823.583 290.091H825.909V287.091ZM820.455 278.636L818.458 280.876L818.471 280.887L818.484 280.899L820.455 278.636ZM798.182 278.182L799.884 280.652L799.889 280.648L798.182 278.182ZM790.864 287.318L788.124 286.096L788.12 286.106L790.864 287.318ZM790.818 315.182L788.056 316.353L788.06 316.362L788.064 316.371L790.818 315.182ZM798.091 324.5L796.356 326.948L796.367 326.955L798.091 324.5ZM816.773 326.364L815.595 323.604L815.595 323.604L816.773 326.364ZM822.545 322.182L824.813 324.147L824.813 324.147L822.545 322.182ZM825.909 315.636V312.636H823.594L823.007 314.876L825.909 315.636ZM836.636 315.636L839.604 316.073L840.11 312.636H836.636V315.636ZM832.136 326.773L829.707 325.012L829.704 325.016L832.136 326.773ZM822.727 334.591L824.052 337.283L824.061 337.278L822.727 334.591ZM809.182 334.455C803.125 334.455 798.08 333.031 793.914 330.307L790.631 335.329C795.92 338.787 802.148 340.455 809.182 340.455V334.455ZM793.914 330.307C789.682 327.54 786.404 323.723 784.079 318.771L778.648 321.32C781.415 327.216 785.409 331.915 790.631 335.329L793.914 330.307ZM784.079 318.771C781.749 313.806 780.545 308.055 780.545 301.455H774.545C774.545 308.793 775.887 315.437 778.648 321.32L784.079 318.771ZM780.545 301.455C780.545 294.734 781.779 288.934 784.159 283.981L778.75 281.383C775.918 287.278 774.545 293.993 774.545 301.455H780.545ZM784.156 283.987C786.574 278.984 789.89 275.161 794.092 272.423L790.817 267.396C785.625 270.779 781.608 275.471 778.753 281.376L784.156 283.987ZM794.096 272.42C798.28 269.684 803.21 268.273 809 268.273V262.273C802.184 262.273 796.084 263.952 790.813 267.398L794.096 272.42ZM809 268.273C813.532 268.273 817.519 269.11 821.016 270.724L823.53 265.276C819.148 263.253 814.286 262.273 809 262.273V268.273ZM821.016 270.724C824.537 272.349 827.372 274.596 829.576 277.464L834.333 273.808C831.507 270.131 827.887 267.287 823.53 265.276L821.016 270.724ZM829.576 277.464C831.753 280.297 833.125 283.619 833.665 287.504L839.608 286.678C838.935 281.835 837.187 277.521 834.333 273.808L829.576 277.464ZM836.636 284.091H825.909V290.091H836.636V284.091ZM828.815 286.344C827.825 282.495 825.636 279.171 822.425 276.374L818.484 280.899C820.91 283.011 822.357 285.323 823.004 287.838L828.815 286.344ZM822.451 276.397C818.979 273.302 814.443 271.909 809.182 271.909V277.909C813.375 277.909 816.354 279.001 818.458 280.876L822.451 276.397ZM809.182 271.909C804.448 271.909 800.173 273.154 796.474 275.715L799.889 280.648C802.493 278.846 805.552 277.909 809.182 277.909V271.909ZM796.479 275.712C792.844 278.217 790.074 281.724 788.124 286.096L793.603 288.541C795.168 285.033 797.277 282.449 799.884 280.652L796.479 275.712ZM788.12 286.106C786.189 290.475 785.273 295.496 785.273 301.091H791.273C791.273 296.141 792.084 291.98 793.608 288.531L788.12 286.106ZM785.273 301.091C785.273 306.793 786.169 311.905 788.056 316.353L793.58 314.01C792.073 310.459 791.273 306.176 791.273 301.091H785.273ZM788.064 316.371C789.978 320.804 792.727 324.375 796.356 326.948L799.826 322.052C797.213 320.201 795.113 317.559 793.572 313.993L788.064 316.371ZM796.367 326.955C800.075 329.558 804.388 330.818 809.182 330.818V324.818C805.49 324.818 802.41 323.866 799.814 322.045L796.367 326.955ZM809.182 330.818C812.323 330.818 815.26 330.271 817.95 329.123L815.595 323.604C813.74 324.396 811.617 324.818 809.182 324.818V330.818ZM817.95 329.123C820.63 327.98 822.93 326.318 824.813 324.147L820.278 320.217C819.009 321.682 817.461 322.808 815.595 323.604L817.95 329.123ZM824.813 324.147C826.717 321.949 828.039 319.344 828.811 316.396L823.007 314.876C822.446 317.019 821.525 318.778 820.278 320.217L824.813 324.147ZM825.909 318.636H836.636V312.636H825.909V318.636ZM833.668 315.2C833.131 318.853 831.811 322.109 829.707 325.012L834.565 328.533C837.249 324.83 838.93 320.662 839.604 316.073L833.668 315.2ZM829.704 325.016C827.649 327.863 824.903 330.163 821.394 331.903L824.061 337.278C828.37 335.14 831.897 332.228 834.568 328.529L829.704 325.016ZM821.402 331.899C818.008 333.57 813.961 334.455 809.182 334.455V340.455C814.706 340.455 819.689 339.43 824.052 337.283L821.402 331.899ZM862.318 310.545L859.318 310.587L859.411 317.329L864.357 312.746L862.318 310.545ZM862.136 297.273V294.273H859.095L859.137 297.314L862.136 297.273ZM864.318 297.273V300.273H865.576L866.458 299.375L864.318 297.273ZM894.864 266.182V263.182H893.605L892.724 264.079L894.864 266.182ZM908.136 266.182L910.269 268.291L915.322 263.182H908.136V266.182ZM875.591 299.091V302.091H876.843L877.724 301.2L875.591 299.091ZM874.682 299.091V296.091H873.506L872.643 296.89L874.682 299.091ZM852.318 336H849.318V339H852.318V336ZM852.318 242.909V239.909H849.318V242.909H852.318ZM863.045 242.909H866.045V239.909H863.045V242.909ZM863.045 336V339H866.045V336H863.045ZM896.682 336L894.327 337.859L895.228 339H896.682V336ZM869.409 301.455L867.313 299.308L865.381 301.194L867.054 303.313L869.409 301.455ZM877.045 294L879.397 292.137L877.331 289.529L874.95 291.853L877.045 294ZM910.318 336V339H916.522L912.67 334.137L910.318 336ZM865.318 310.504L865.136 297.232L859.137 297.314L859.318 310.587L865.318 310.504ZM862.136 300.273H864.318V294.273H862.136V300.273ZM866.458 299.375L897.004 268.284L892.724 264.079L862.178 295.17L866.458 299.375ZM894.864 269.182H908.136V263.182H894.864V269.182ZM906.003 264.072L873.458 296.981L877.724 301.2L910.269 268.291L906.003 264.072ZM875.591 296.091H874.682V302.091H875.591V296.091ZM872.643 296.89L860.279 308.345L864.357 312.746L876.721 301.292L872.643 296.89ZM855.318 336V242.909H849.318V336H855.318ZM852.318 245.909H863.045V239.909H852.318V245.909ZM860.045 242.909V336H866.045V242.909H860.045ZM863.045 333H852.318V339H863.045V333ZM899.036 334.141L871.764 299.596L867.054 303.313L894.327 337.859L899.036 334.141ZM871.505 303.601L879.141 296.147L874.95 291.853L867.313 299.308L871.505 303.601ZM874.694 295.863L907.967 337.863L912.67 334.137L879.397 292.137L874.694 295.863ZM910.318 333H896.682V339H910.318V333ZM930.932 333L929.353 335.551L929.363 335.557L929.372 335.563L930.932 333ZM919.705 320.455L917.003 321.76L917.008 321.769L917.012 321.778L919.705 320.455ZM919.705 282.727L917.001 281.428L916.998 281.434L919.705 282.727ZM930.705 269.909L932.342 272.423L932.346 272.42L930.705 269.909ZM958.023 267.091L958.993 264.252L958.993 264.252L958.023 267.091ZM967.705 273L965.653 275.189L965.659 275.194L965.665 275.2L967.705 273ZM974.659 283.727L977.456 282.643L977.456 282.643L974.659 283.727ZM977.25 304.727V307.727H980.25V304.727H977.25ZM923.432 304.727H920.432V307.727H923.432V304.727ZM923.432 295.455V292.455H920.432V295.455H923.432ZM966.341 295.455V298.455H969.341V295.455H966.341ZM963.977 284.909L961.294 286.251L961.299 286.261L961.305 286.272L963.977 284.909ZM957.341 277.591L955.746 280.132L955.752 280.136L955.758 280.139L957.341 277.591ZM936.159 278.091L937.84 280.576L937.845 280.572L936.159 278.091ZM929.023 286.273L926.335 284.941L926.335 284.941L929.023 286.273ZM929.25 316.682L926.562 318.015L926.569 318.028L926.576 318.041L929.25 316.682ZM936.932 325L935.42 327.591L935.429 327.597L935.438 327.602L936.932 325ZM955.977 326.636L956.96 329.471L956.971 329.467L956.982 329.463L955.977 326.636ZM961.932 323L964.013 325.16L964.024 325.151L964.034 325.141L961.932 323ZM965.795 316.909L966.606 314.021L963.954 313.276L962.986 315.856L965.795 316.909ZM976.159 319.818L979.024 320.707L979.938 317.763L976.97 316.93L976.159 319.818ZM970.659 329.091L972.805 331.187L972.811 331.181L972.817 331.175L970.659 329.091ZM961.114 335.273L962.189 338.073L962.199 338.07L962.209 338.066L961.114 335.273ZM948.341 334.455C942.065 334.455 936.823 333.074 932.492 330.437L929.372 335.563C934.799 338.866 941.162 340.455 948.341 340.455V334.455ZM932.51 330.449C928.165 327.76 924.797 324.015 922.397 319.131L917.012 321.778C919.885 327.622 924.002 332.24 929.353 335.551L932.51 330.449ZM922.406 319.149C920.031 314.234 918.795 308.423 918.795 301.636H912.795C912.795 309.153 914.166 315.887 917.003 321.76L922.406 319.149ZM918.795 301.636C918.795 294.851 920.031 289.004 922.411 284.021L916.998 281.434C914.166 287.36 912.795 294.118 912.795 301.636H918.795ZM922.408 284.027C924.828 278.993 928.144 275.158 932.342 272.423L929.067 267.396C923.871 270.781 919.854 275.492 917.001 281.428L922.408 284.027ZM932.346 272.42C936.53 269.684 941.46 268.273 947.25 268.273V262.273C940.434 262.273 934.334 263.952 929.063 267.398L932.346 272.42ZM947.25 268.273C950.546 268.273 953.81 268.821 957.052 269.93L958.993 264.252C955.145 262.937 951.227 262.273 947.25 262.273V268.273ZM957.052 269.93C960.17 270.995 963.034 272.733 965.653 275.189L969.756 270.811C966.557 267.812 962.967 265.611 958.993 264.252L957.052 269.93ZM965.665 275.2C968.179 277.531 970.266 280.696 971.862 284.812L977.456 282.643C975.598 277.849 973.048 273.863 969.744 270.8L965.665 275.2ZM971.862 284.812C973.416 288.82 974.25 293.912 974.25 300.182H980.25C980.25 293.422 979.357 287.544 977.456 282.643L971.862 284.812ZM974.25 300.182V304.727H980.25V300.182H974.25ZM977.25 301.727H923.432V307.727H977.25V301.727ZM926.432 304.727V295.455H920.432V304.727H926.432ZM923.432 298.455H966.341V292.455H923.432V298.455ZM969.341 295.455C969.341 291.106 968.468 287.113 966.65 283.547L961.305 286.272C962.638 288.887 963.341 291.924 963.341 295.455H969.341ZM966.661 283.567C964.872 279.991 962.284 277.129 958.924 275.042L955.758 280.139C958.156 281.628 959.992 283.646 961.294 286.251L966.661 283.567ZM958.936 275.05C955.54 272.918 951.605 271.909 947.25 271.909V277.909C950.653 277.909 953.445 278.688 955.746 280.132L958.936 275.05ZM947.25 271.909C942.458 271.909 938.155 273.107 934.473 275.61L937.845 280.572C940.405 278.832 943.496 277.909 947.25 277.909V271.909ZM934.478 275.606C930.955 277.99 928.23 281.115 926.335 284.941L931.711 287.605C933.149 284.703 935.182 282.374 937.84 280.576L934.478 275.606ZM926.335 284.941C924.458 288.729 923.523 292.792 923.523 297.091H929.523C929.523 293.692 930.255 290.544 931.711 287.605L926.335 284.941ZM923.523 297.091V303.273H929.523V297.091H923.523ZM923.523 303.273C923.523 308.879 924.488 313.832 926.562 318.015L931.938 315.349C930.375 312.198 929.523 308.212 929.523 303.273H923.523ZM926.576 318.041C928.664 322.15 931.611 325.369 935.42 327.591L938.443 322.409C935.707 320.812 933.533 318.486 931.924 315.322L926.576 318.041ZM935.438 327.602C939.229 329.778 943.562 330.818 948.341 330.818V324.818C944.453 324.818 941.18 323.979 938.425 322.398L935.438 327.602ZM948.341 330.818C951.437 330.818 954.322 330.385 956.96 329.471L954.995 323.802C953.087 324.463 950.881 324.818 948.341 324.818V330.818ZM956.982 329.463C959.664 328.51 962.022 327.079 964.013 325.16L959.85 320.84C958.508 322.133 956.896 323.126 954.973 323.809L956.982 329.463ZM964.034 325.141C966.045 323.166 967.559 320.752 968.604 317.962L962.986 315.856C962.214 317.915 961.152 319.561 959.83 320.859L964.034 325.141ZM964.985 319.797L975.348 322.707L976.97 316.93L966.606 314.021L964.985 319.797ZM973.294 318.929C972.343 321.993 970.754 324.675 968.501 327.007L972.817 331.175C975.716 328.174 977.793 324.674 979.024 320.707L973.294 318.929ZM968.513 326.994C966.264 329.296 963.452 331.134 960.019 332.48L962.209 338.066C966.351 336.442 969.903 334.158 972.805 331.187L968.513 326.994ZM960.038 332.472C956.645 333.775 952.76 334.455 948.341 334.455V340.455C953.376 340.455 958.006 339.68 962.189 338.073L960.038 332.472ZM993.568 336H990.568V339H993.568V336ZM993.568 266.182V263.182H990.568V266.182H993.568ZM1003.93 266.182H1006.93V263.182H1003.93V266.182ZM1003.93 276.727H1000.93V279.727H1003.93V276.727ZM1004.66 276.727V279.727H1006.75L1007.47 277.764L1004.66 276.727ZM1011.57 268.318L1009.94 265.798L1009.94 265.798L1011.57 268.318ZM1028.48 265.273H1031.48V262.558L1028.78 262.288L1028.48 265.273ZM1028.48 276.182L1027.75 279.092L1031.48 280.024V276.182H1028.48ZM1025.98 275.773L1025.48 278.732L1025.52 278.738L1025.56 278.744L1025.98 275.773ZM1012.84 277.591L1014.24 280.243L1014.25 280.237L1012.84 277.591ZM1006.57 283.409L1004.02 281.825L1004.02 281.833L1006.57 283.409ZM1004.3 336V339H1007.3V336H1004.3ZM996.568 336V266.182H990.568V336H996.568ZM993.568 269.182H1003.93V263.182H993.568V269.182ZM1000.93 266.182V276.727H1006.93V266.182H1000.93ZM1003.93 279.727H1004.66V273.727H1003.93V279.727ZM1007.47 277.764C1008.5 274.968 1010.36 272.667 1013.2 270.839L1009.94 265.798C1006.11 268.273 1003.36 271.577 1001.84 275.69L1007.47 277.764ZM1013.2 270.839C1016.02 269.017 1019.2 268.091 1022.84 268.091V262.091C1018.11 262.091 1013.79 263.316 1009.94 265.798L1013.2 270.839ZM1022.84 268.091C1023.59 268.091 1024.55 268.105 1025.72 268.135L1025.87 262.137C1024.68 262.107 1023.66 262.091 1022.84 262.091V268.091ZM1025.72 268.135C1026.88 268.165 1027.69 268.209 1028.18 268.258L1028.78 262.288C1028.06 262.216 1027.07 262.168 1025.87 262.137L1025.72 268.135ZM1025.48 265.273V276.182H1031.48V265.273H1025.48ZM1029.2 273.271C1028.66 273.134 1027.65 272.977 1026.39 272.802L1025.56 278.744C1026.91 278.932 1027.57 279.048 1027.75 279.092L1029.2 273.271ZM1026.47 272.814C1025.02 272.572 1023.5 272.455 1021.93 272.455V278.455C1023.21 278.455 1024.39 278.55 1025.48 278.732L1026.47 272.814ZM1021.93 272.455C1018.11 272.455 1014.58 273.261 1011.43 274.945L1014.25 280.237C1016.43 279.072 1018.97 278.455 1021.93 278.455V272.455ZM1011.44 274.939C1008.34 276.576 1005.85 278.88 1004.02 281.825L1009.12 284.993C1010.38 282.969 1012.07 281.394 1014.24 280.243L1011.44 274.939ZM1004.02 281.833C1002.18 284.805 1001.3 288.163 1001.3 291.818H1007.3C1007.3 289.17 1007.93 286.922 1009.12 284.985L1004.02 281.833ZM1001.3 291.818V336H1007.3V291.818H1001.3ZM1004.3 333H993.568V339H1004.3V333Z" fill="black"/>
<defs>
<linearGradient id="paint0_linear_319_4" x1="743.351" y1="346.632" x2="779.903" y2="265.013" gradientUnits="userSpaceOnUse">
<stop stop-color="#FF6384" stop-opacity="0.62"/>
<stop offset="1" stop-color="#41A9FF" stop-opacity="0"/>
</linearGradient>
<linearGradient id="paint1_linear_319_4" x1="743.351" y1="346.632" x2="779.903" y2="265.013" gradientUnits="userSpaceOnUse">
<stop stop-color="#FF6384" stop-opacity="0.62"/>
<stop offset="1" stop-color="#41A9FF" stop-opacity="0"/>
</linearGradient>
<linearGradient id="paint2_linear_319_4" x1="634.029" y1="459.189" x2="681.647" y2="330.642" gradientUnits="userSpaceOnUse">
<stop stop-color="white"/>
<stop offset="1" stop-color="white" stop-opacity="0"/>
</linearGradient>
<radialGradient id="paint3_radial_319_4" cx="0" cy="0" r="1" gradientUnits="userSpaceOnUse" gradientTransform="translate(442.953 531.476) rotate(-174.171) scale(1261.16 68.3717)">
<stop stop-color="white"/>
<stop offset="1" stop-color="white" stop-opacity="0"/>
</radialGradient>
<linearGradient id="paint4_linear_319_4" x1="324.796" y1="240.597" x2="286.194" y2="321.266" gradientUnits="userSpaceOnUse">
<stop stop-color="#4BC0C0" stop-opacity="0.45"/>
<stop offset="1" stop-color="#41A9FF" stop-opacity="0"/>
</linearGradient>
<linearGradient id="paint5_linear_319_4" x1="324.796" y1="240.597" x2="286.194" y2="321.266" gradientUnits="userSpaceOnUse">
<stop stop-color="#4BC0C0" stop-opacity="0.45"/>
<stop offset="1" stop-color="#41A9FF" stop-opacity="0"/>
</linearGradient>
<linearGradient id="paint6_linear_319_4" x1="436.927" y1="130.84" x2="386.077" y2="258.141" gradientUnits="userSpaceOnUse">
<stop stop-color="white"/>
<stop offset="1" stop-color="white" stop-opacity="0"/>
</linearGradient>
<radialGradient id="paint7_radial_319_4" cx="0" cy="0" r="1" gradientUnits="userSpaceOnUse" gradientTransform="translate(629.769 63.4037) rotate(7.27694) scale(1261.16 68.3711)">
<stop stop-color="white"/>
<stop offset="1" stop-color="white" stop-opacity="0"/>
</radialGradient>
</defs>
</svg>
